<?xml version="1.0" standalone="no"?>
<!DOCTYPE svg PUBLIC "-//W3C//DTD SVG 20010904//EN"
 "http://www.w3.org/TR/2001/REC-SVG-20010904/DTD/svg10.dtd">
<svg version="1.0" xmlns="http://www.w3.org/2000/svg"
 width="500.000000pt" height="500.000000pt" viewBox="0 0 500.000000 500.000000"
 preserveAspectRatio="xMidYMid meet">
<metadata>
Created by potrace 1.11, written by Peter Selinger 2001-2013
</metadata>
<g transform="translate(0.000000,500.000000) scale(0.100000,-0.100000)"
fill="#000000" stroke="none">
<path d="M2419 4626 c-2 -2 -31 -6 -64 -10 -370 -39 -767 -204 -1070 -444 -89
-70 -254 -236 -327 -328 -181 -228 -335 -536 -403 -804 -14 -56 -44 -215 -50
-264 -9 -68 -27 -68 151 -2 123 46 127 49 137 116 14 100 78 291 146 435 243
511 684 871 1236 1009 215 54 530 65 729 25 28 -6 65 -13 81 -15 82 -14 261
-73 377 -126 144 -64 277 -144 388 -233 l66 -52 124 45 c69 25 127 47 130 49
2 2 -11 17 -30 34 -358 312 -741 491 -1190 554 -48 7 -425 16 -431 11z"/>
<path d="M4660 4126 c-162 -57 -422 -153 -495 -182 -259 -103 -477 -264 -533
-394 -8 -19 -41 -111 -73 -205 -31 -93 -92 -269 -133 -390 -42 -121 -76 -228
-76 -237 0 -9 14 -32 31 -50 18 -18 29 -28 25 -21 -5 9 1 9 23 3 16 -4 32 -6
35 -2 3 3 6 0 6 -7 0 -7 5 -9 13 -4 6 4 23 8 37 9 14 0 46 4 72 8 26 4 51 7
54 6 4 -1 11 4 15 12 7 10 9 10 9 1 0 -7 5 -13 11 -13 5 0 7 5 4 10 -3 6 -1
10 5 10 6 0 13 -7 16 -15 9 -22 23 -18 36 10 8 19 16 24 31 19 13 -4 17 -2 13
5 -5 7 1 11 14 11 12 0 31 5 42 11 18 10 20 9 15 -5 -4 -9 -2 -16 3 -16 6 0
10 8 10 18 0 10 12 22 29 29 24 9 34 8 53 -5 22 -15 22 -15 9 1 -8 10 -12 19
-10 21 11 8 75 30 82 28 4 -1 7 3 7 10 0 6 3 8 7 5 3 -4 15 1 25 10 14 13 21
14 30 5 15 -15 28 -15 28 -1 0 5 -4 7 -10 4 -5 -3 -10 -1 -10 5 0 5 16 18 35
27 19 9 35 21 35 27 1 6 7 0 14 -13 11 -20 14 -21 19 -7 4 10 3 15 -3 11 -6
-3 -10 1 -10 9 0 10 6 13 15 9 9 -3 15 -2 13 3 -2 5 -1 9 2 10 3 0 25 20 50
43 28 26 52 40 62 37 10 -2 21 0 24 5 3 5 10 7 15 4 5 -4 9 -1 9 4 0 14 -13
14 -28 -1 -9 -9 -12 -8 -12 4 0 19 21 29 50 23 12 -2 18 0 14 6 -3 6 3 13 15
16 12 3 21 10 21 15 0 10 -16 3 -42 -20 -22 -19 -23 -9 -2 24 11 15 24 24 37
22 13 -2 21 3 23 16 2 14 0 16 -9 7 -15 -15 -32 -14 -19 2 5 6 13 22 16 34 7
20 2 19 -96 -18 -57 -21 -107 -46 -113 -55 -51 -84 -177 -169 -316 -213 -104
-32 -169 -21 -132 23 16 18 16 19 1 8 -15 -12 -17 -11 -15 6 1 13 6 18 17 14
13 -5 13 -3 2 10 -9 11 -10 18 -2 23 5 3 10 1 10 -6 0 -7 3 -9 6 -6 4 4 1 13
-6 22 -12 15 -4 21 23 16 5 -1 6 3 2 9 -3 6 -11 8 -16 5 -5 -4 -9 -2 -9 3 0 5
8 12 18 14 10 3 19 12 19 21 0 9 -4 14 -9 11 -5 -3 -6 -10 -3 -15 4 -5 1 -9
-4 -9 -16 0 -13 16 8 58 10 20 19 40 20 44 11 64 14 68 29 56 12 -10 14 -10 8
-1 -4 7 -2 22 4 33 8 15 7 19 -2 16 -7 -1 -10 -1 -5 1 4 3 7 15 7 28 0 12 7
28 15 35 8 7 13 16 10 20 -8 13 13 60 26 60 7 0 5 -9 -5 -24 -12 -19 -13 -27
-3 -32 6 -4 9 -4 5 1 -4 4 -3 14 2 21 18 20 21 54 4 47 -11 -4 -12 1 -2 28 6
19 16 40 22 48 6 8 10 22 8 33 -3 15 7 22 29 20 10 -1 7 32 -5 47 -8 12 -8 13
2 7 9 -5 13 -3 11 5 -4 31 2 49 16 49 8 0 15 -5 15 -12 0 -6 3 -8 7 -4 5 4 0
13 -10 21 -15 11 -16 17 -6 38 6 14 21 30 33 36 20 10 19 11 -4 5 -22 -6 -23
-5 -11 10 7 9 11 16 7 16 -4 0 1 11 10 25 15 23 34 26 34 4 0 -6 -5 -7 -12 -3
-7 5 -8 3 -3 -5 13 -21 29 4 16 26 -8 17 -5 24 19 41 16 12 39 22 52 22 44 0
56 3 51 16 -4 11 -8 10 -20 -1 -13 -14 -33 -12 -33 2 0 4 3 3 7 0 3 -4 15 1
25 10 17 15 20 15 28 3 8 -13 10 -12 10 3 0 9 4 17 9 17 11 0 9 -19 -4 -40 -7
-12 -6 -13 7 -3 8 7 19 9 24 5 4 -4 3 0 -3 8 -14 18 -1 46 16 36 6 -4 11 -2
11 3 0 6 3 10 8 9 4 -1 17 3 30 10 12 7 27 10 32 7 6 -3 10 -2 10 4 0 9 15 16
60 26 3 1 18 7 33 13 16 7 32 12 37 12 4 0 27 9 51 19 39 18 78 19 50 1 -7 -3
3 -7 21 -7 29 0 30 1 10 10 -12 6 -22 15 -22 20 0 6 3 7 7 4 3 -4 12 -2 20 4
7 6 13 8 13 4 0 -4 7 -2 15 5 13 11 18 10 31 -6 14 -17 15 -17 10 -1 -8 24 14
56 33 50 10 -4 9 0 -4 10 -11 9 -15 17 -8 17 8 0 10 7 6 18 -6 15 -5 16 13 2
17 -13 18 -13 8 0 -6 8 -13 21 -15 27 -3 9 -31 3 -99 -21z m-658 -608 c-7 -7
-12 -8 -12 -2 0 6 3 14 7 17 3 4 9 5 12 2 2 -3 -1 -11 -7 -17z m-268 -843 c-4
-8 -10 -12 -15 -9 -11 6 -2 24 11 24 5 0 7 -7 4 -15z"/>
<path d="M4743 4045 c0 -8 4 -12 9 -9 5 3 6 10 3 15 -9 13 -12 11 -12 -6z"/>
<path d="M4671 4010 c-10 -5 -9 -8 2 -13 7 -3 19 -2 26 3 10 5 9 8 -2 13 -7 3
-19 2 -26 -3z"/>
<path d="M4566 3975 c-11 -8 -18 -17 -15 -19 2 -3 15 4 29 14 14 11 21 20 15
19 -5 0 -19 -6 -29 -14z"/>
<path d="M4479 3939 l-24 -20 28 17 c15 9 27 18 27 20 0 8 -8 4 -31 -17z"/>
<path d="M4437 3921 c-4 -17 -3 -21 5 -13 5 5 8 16 6 23 -3 8 -7 3 -11 -10z"/>
<path d="M4402 3909 c-7 -12 -11 -24 -8 -27 3 -3 6 0 6 7 0 7 5 9 13 5 6 -4 9
-4 5 1 -4 4 -3 14 3 22 6 7 7 13 3 13 -5 0 -15 -9 -22 -21z"/>
<path d="M4365 3900 c3 -5 8 -10 11 -10 2 0 4 5 4 10 0 6 -5 10 -11 10 -5 0
-7 -4 -4 -10z"/>
<path d="M4340 3879 c0 -5 5 -7 10 -4 6 3 10 8 10 11 0 2 -4 4 -10 4 -5 0 -10
-5 -10 -11z"/>
<path d="M4320 3872 c0 -6 -8 -9 -17 -6 -15 5 -16 4 -3 -5 16 -11 40 3 27 16
-4 3 -7 1 -7 -5z"/>
<path d="M4132 3800 c-12 -10 -19 -21 -15 -23 5 -3 16 6 26 19 21 29 19 30
-11 4z"/>
<path d="M4161 3796 c-9 -11 -9 -16 0 -22 7 -4 9 -3 5 4 -3 6 2 15 11 21 10 6
13 11 7 11 -6 0 -17 -6 -23 -14z"/>
<path d="M3320 3664 c-235 -87 -221 -78 -247 -154 -12 -36 -80 -236 -153 -445
-72 -209 -147 -426 -166 -483 -19 -56 -48 -138 -63 -181 l-28 -80 22 9 c15 6
27 4 35 -3 7 -7 10 -7 7 -1 -3 6 10 17 29 26 23 10 34 12 34 4 0 -6 7 -2 15 8
14 19 15 18 25 -5 8 -20 10 -21 9 -4 -2 36 1 39 17 19 14 -18 15 -18 8 6 -3
14 -3 22 1 18 5 -4 14 -3 21 3 15 13 37 2 28 -13 -4 -7 -9 -6 -14 2 -5 8 -9 8
-13 -3 -3 -8 0 -14 6 -13 23 3 38 18 33 32 -7 17 6 18 22 2 10 -10 18 -7 38
15 14 15 29 25 34 22 4 -3 10 1 13 7 2 7 7 10 11 7 12 -11 -5 -40 -18 -30 -7
6 -17 0 -30 -17 l-20 -27 22 18 c11 11 26 16 32 12 7 -4 16 6 23 24 6 17 17
31 24 31 14 0 23 12 28 42 3 12 10 25 16 29 6 4 9 11 6 16 -3 5 9 31 28 58 18
28 31 52 28 55 -3 3 -8 -1 -10 -7 -3 -7 -9 -13 -14 -13 -6 0 -5 8 1 20 6 11 8
20 4 20 -3 0 -1 7 6 15 7 8 17 12 24 8 6 -4 4 2 -4 12 -14 17 -13 18 4 12 16
-6 17 -5 6 8 -7 9 -9 19 -5 23 4 4 10 1 12 -5 3 -7 9 -13 15 -13 6 0 3 10 -8
22 -15 17 -16 20 -3 16 10 -4 16 -1 16 8 0 8 -6 13 -13 10 -8 -3 -11 0 -7 10
3 10 12 12 26 8 20 -6 21 -6 3 12 -11 11 -14 20 -8 22 6 2 8 11 5 19 -5 12 -2
15 10 10 15 -5 16 -3 7 12 -7 14 -6 22 5 31 17 14 21 35 5 25 -18 -11 -11 4
13 26 12 12 15 18 7 14 -12 -7 -13 -6 -3 7 7 8 9 19 5 23 -4 5 0 6 9 3 9 -4
16 -1 16 8 0 7 -4 11 -9 8 -10 -6 -11 10 -1 19 3 4 13 1 21 -6 11 -8 10 -3 -3
17 l-19 29 24 -7 c21 -6 22 -5 8 4 -15 9 -16 14 -5 33 6 12 19 27 27 34 13 11
12 12 -5 6 -17 -6 -18 -4 -8 9 7 8 10 18 6 21 -3 4 -1 7 4 7 6 0 14 -6 16 -12
4 -10 6 -10 6 -1 1 6 -3 14 -8 18 -10 6 26 126 41 136 5 3 8 10 7 15 -4 22 2
44 12 44 5 0 7 -5 3 -12 -4 -7 -3 -8 5 -4 6 4 9 11 6 16 -3 5 0 10 7 13 7 2 5
3 -4 2 -21 -4 -22 -1 -7 26 5 11 15 17 22 13 9 -5 8 -3 0 7 -18 18 -16 25 10
49 20 19 20 21 2 14 -18 -7 -18 -6 -6 9 7 9 16 15 20 13 4 -3 8 5 8 17 2 17 0
19 -7 7 -6 -9 -10 -10 -10 -3 0 6 14 25 31 42 17 17 26 31 20 31 -5 0 -15 -8
-20 -17 -13 -22 -14 -8 -2 15 16 32 21 82 8 81 -6 0 -91 -29 -187 -65z m-166
-1039 c-4 -8 -8 -15 -10 -15 -2 0 -4 7 -4 15 0 8 4 15 10 15 5 0 7 -7 4 -15z
m-180 -200 c-7 -16 -24 -21 -24 -6 0 8 7 13 27 20 1 1 0 -6 -3 -14z"/>
<path d="M4070 3726 c0 -2 7 -7 16 -10 8 -3 12 -2 9 4 -6 10 -25 14 -25 6z"/>
<path d="M4046 3645 c-3 -8 -1 -15 4 -15 6 0 10 7 10 15 0 8 -2 15 -4 15 -2 0
-6 -7 -10 -15z"/>
<path d="M4026 3567 c3 -10 9 -15 12 -12 3 3 0 11 -7 18 -10 9 -11 8 -5 -6z"/>
<path d="M3471 3511 c-19 -14 -21 -20 -10 -26 8 -5 11 -5 7 0 -4 4 3 16 15 26
29 24 19 24 -12 0z"/>
<path d="M2685 3430 l-210 -77 -58 -169 c-129 -372 -142 -406 -152 -410 -5 -1
-77 -27 -160 -57 -82 -30 -166 -59 -186 -65 -33 -9 -36 -8 -32 9 4 16 9 17 27
7 20 -11 20 -10 3 9 -21 24 -13 61 9 42 19 -16 18 -4 -2 15 -9 9 -11 16 -4 16
6 0 8 5 5 10 -3 6 -1 11 4 11 6 1 15 2 20 3 5 0 13 5 18 9 4 5 4 8 -2 7 -31
-7 -35 0 -20 30 8 16 16 33 16 37 0 21 32 113 40 118 5 4 9 17 9 30 0 13 5 27
10 30 6 4 8 11 5 16 -4 5 -2 9 4 9 5 0 8 9 6 21 -4 18 -2 19 12 7 15 -11 15
-11 6 6 -8 15 -7 30 3 59 8 22 12 42 10 44 -2 3 -124 -40 -271 -94 l-267 -98
-19 -50 c-11 -27 -19 -53 -19 -56 0 -9 33 -6 40 2 5 7 35 12 57 10 13 -1 0
-41 -306 -921 -34 -96 -61 -181 -61 -188 0 -10 7 -9 32 1 34 14 62 12 52 -4
-3 -5 0 -9 6 -9 7 0 9 8 5 20 -4 14 -2 20 9 21 25 2 30 4 44 13 19 11 30 -3
12 -15 -12 -9 -12 -10 3 -5 10 3 20 6 23 6 2 0 1 6 -2 14 -3 8 0 17 7 22 8 4
10 3 5 -4 -4 -7 -2 -12 4 -12 6 0 9 -4 6 -8 -2 -4 4 -8 14 -8 10 0 18 5 17 11
-1 5 5 9 13 7 12 -3 13 -1 2 10 -11 11 -14 10 -22 -2 -5 -8 -12 -11 -15 -8
-11 11 5 28 26 28 11 0 22 -7 25 -15 4 -8 11 -15 17 -15 7 0 7 4 -1 12 -16 16
-15 25 2 31 10 4 13 1 10 -7 -3 -8 -1 -17 5 -21 6 -3 9 0 6 7 -8 22 12 41 44
41 16 0 28 4 26 8 -3 4 6 10 19 13 13 3 31 17 40 31 9 14 20 23 25 21 4 -3 8
1 8 9 0 18 -14 20 -20 3 -2 -7 -7 -10 -11 -7 -10 10 24 40 36 33 7 -4 8 -2 4
5 -4 6 -13 8 -19 4 -8 -5 -8 -2 0 9 7 8 9 19 5 23 -4 5 0 6 9 3 9 -4 16 -1 16
8 0 7 -4 11 -9 8 -10 -6 -11 10 -1 19 3 4 13 1 21 -6 11 -8 10 -3 -3 17 l-19
29 24 -7 c21 -6 22 -5 7 4 -9 6 -15 16 -11 22 4 7 9 6 14 -2 4 -7 7 5 6 26 -1
27 3 39 13 39 17 0 26 21 12 29 -5 4 -3 25 7 56 8 27 19 47 24 44 5 -3 3 -13
-4 -22 -12 -15 -11 -16 4 -3 14 10 15 17 7 33 -6 11 -7 23 -3 26 4 4 9 1 11
-5 3 -7 9 -13 14 -13 5 0 3 10 -5 23 -8 13 -11 30 -7 41 5 14 10 16 15 8 4 -7
4 -18 0 -24 -5 -10 -4 -10 5 -2 10 9 10 17 2 32 -15 28 -14 35 9 62 11 13 20
18 20 12 0 -7 5 -12 11 -12 5 0 7 5 3 12 -4 7 -3 8 4 4 7 -4 12 -2 12 5 0 8 4
8 13 1 9 -8 17 -8 27 0 12 8 12 9 -2 4 -10 -3 -18 -2 -18 3 0 5 9 11 20 14 18
5 25 -4 21 -26 -1 -5 3 -6 8 -2 6 3 8 12 5 20 -4 10 3 18 20 25 28 10 59 4 50
-11 -3 -5 2 -6 12 -2 15 5 15 7 0 15 -17 9 -13 28 5 28 6 0 7 -4 4 -10 -5 -9
1 -12 21 -9 4 0 11 -5 16 -13 8 -10 9 -10 5 2 -2 8 -10 14 -17 12 -6 -1 -10 3
-8 9 2 6 25 20 51 30 43 17 46 17 41 1 -4 -13 -2 -12 8 3 7 11 18 21 23 22 6
1 19 5 30 8 11 4 16 3 10 -2 -5 -4 -12 -17 -13 -28 -2 -11 -30 -97 -63 -191
-32 -94 -59 -184 -59 -200 0 -19 11 -39 32 -59 18 -16 27 -23 21 -15 -10 13
-4 15 40 15 32 1 55 -4 60 -12 4 -7 16 -13 25 -12 14 0 14 2 2 7 -23 11 -21
28 3 29 17 2 19 0 7 -7 -11 -7 -11 -10 -2 -10 7 0 15 7 19 16 3 8 12 13 19 10
8 -3 14 -1 14 5 0 6 3 8 8 5 4 -2 18 2 32 9 21 11 26 11 41 -6 15 -17 17 -17
23 -4 3 9 11 13 17 9 8 -4 9 1 4 16 -5 15 -4 20 4 16 6 -4 11 -2 11 4 0 6 6
10 13 8 6 -1 22 3 34 10 18 10 24 9 37 -3 8 -8 18 -15 22 -15 5 0 3 5 -4 12
-19 19 -14 28 16 29 16 1 20 3 10 6 -20 5 -24 28 -8 38 6 3 10 -2 11 -12 0
-11 3 -13 6 -5 3 7 0 19 -6 26 -6 7 -8 16 -4 20 4 3 8 16 10 27 3 17 0 18 -16
9 -28 -14 -54 -13 -45 3 6 9 5 9 -8 0 -8 -7 -18 -10 -21 -6 -4 3 1 12 11 19
10 8 12 13 5 14 -9 0 -10 7 -4 23 16 38 24 62 25 69 1 3 5 10 10 15 5 5 6 2 1
-7 -7 -13 -6 -13 6 -1 11 10 11 15 1 18 -19 7 -4 23 16 16 13 -4 13 -2 -3 10
-12 10 -15 16 -7 17 7 0 10 5 6 12 -4 7 -3 8 5 4 8 -6 10 0 5 18 -4 16 -2 26
5 26 6 0 10 -5 8 -11 -1 -6 5 -14 13 -16 13 -4 13 -3 0 6 -8 6 -11 11 -6 11 5
0 3 6 -3 13 -8 10 -7 19 3 32 8 11 12 25 9 31 -2 7 1 15 6 19 6 3 8 11 5 17
-5 8 -1 9 11 4 14 -5 16 -4 6 8 -15 18 3 59 33 75 11 7 13 9 4 7 -10 -3 -20
-1 -23 4 -4 6 -2 10 3 10 8 0 25 54 20 63 -1 1 4 13 11 26 10 19 15 21 22 10
12 -20 11 -2 -1 22 -7 11 -7 19 -1 19 5 0 12 -6 15 -12 4 -9 5 -8 5 2 -2 31 1
41 13 34 7 -5 8 -3 3 6 -6 10 -11 9 -23 -6 -14 -18 -14 -18 -8 -1 3 10 6 21 6
23 0 2 8 4 18 5 10 0 12 3 5 6 -10 3 -10 10 -2 24 5 11 7 24 4 29 -3 5 -1 11
4 14 4 3 11 19 14 34 4 19 14 31 27 35 12 3 19 10 15 16 -3 6 -1 11 6 11 9 0
8 4 -3 13 -21 16 -5 82 18 73 8 -3 12 -2 9 3 -3 5 -1 13 5 16 7 4 8 11 1 18
-6 8 -1 37 15 86 14 40 24 74 22 76 -2 1 -97 -32 -213 -75z m175 -94 c0 -3 -4
-8 -10 -11 -5 -3 -10 -1 -10 4 0 6 5 11 10 11 6 0 10 -2 10 -4z m-43 -121 c0
-8 -4 -15 -9 -15 -4 0 -8 7 -8 15 0 8 4 15 8 15 5 0 9 -7 9 -15z m-1057 -975
c0 -5 -2 -10 -4 -10 -3 0 -8 5 -11 10 -3 6 -1 10 4 10 6 0 11 -4 11 -10z m688
-12 c-2 -5 -8 -9 -13 -9 -5 0 -11 4 -13 9 -1 5 4 9 13 9 9 0 14 -4 13 -9z"/>
<path d="M2895 3450 c-3 -5 -4 -14 -1 -19 4 -5 1 -12 -4 -14 -6 -3 -5 -4 1 -3
7 1 13 12 14 24 2 24 -1 27 -10 12z"/>
<path d="M3973 3423 c4 -6 2 -13 -4 -15 -7 -2 -6 -8 3 -16 12 -9 14 -8 13 8
-1 11 -5 23 -10 27 -4 5 -5 3 -2 -4z"/>
<path d="M3397 3325 c-4 -8 -3 -16 1 -19 4 -3 9 4 9 15 2 23 -3 25 -10 4z"/>
<path d="M2830 3275 c0 -8 4 -15 8 -15 5 0 9 7 9 15 0 8 -4 15 -9 15 -4 0 -8
-7 -8 -15z"/>
<path d="M3916 3271 c-3 -5 1 -11 9 -14 9 -4 12 -1 8 9 -6 16 -10 17 -17 5z"/>
<path d="M3375 3259 c-4 -6 -4 -13 -1 -16 3 -4 6 -1 6 6 0 7 5 9 12 5 7 -4 8
-3 4 4 -9 15 -13 15 -21 1z"/>
<path d="M2799 3178 c-6 -21 -17 -76 -12 -60 3 6 8 12 12 12 4 0 7 11 7 25 0
21 -4 33 -7 23z"/>
<path d="M2057 3125 c-4 -8 -3 -16 1 -19 4 -3 9 4 9 15 2 23 -3 25 -10 4z"/>
<path d="M3866 3121 c-4 -5 3 -7 14 -4 23 6 26 13 6 13 -8 0 -17 -4 -20 -9z"/>
<path d="M3871 3084 c0 -11 3 -14 6 -6 3 7 2 16 -1 19 -3 4 -6 -2 -5 -13z"/>
<path d="M2020 3026 c0 -2 7 -7 16 -10 8 -3 12 -2 9 4 -6 10 -25 14 -25 6z"/>
<path d="M3280 2970 c-9 -6 -10 -10 -3 -10 6 0 15 5 18 10 8 12 4 12 -15 0z"/>
<path d="M4307 2962 c-13 -14 -15 -22 -7 -27 6 -4 14 -4 17 -1 4 3 1 6 -6 6
-7 0 -9 5 -6 11 4 6 13 8 21 5 7 -3 16 0 20 6 4 6 3 8 -4 4 -5 -3 -12 -1 -14
5 -2 6 -11 2 -21 -9z"/>
<path d="M1305 2925 c-49 -18 -184 -68 -300 -111 -244 -89 -378 -151 -490
-225 -91 -61 -194 -159 -219 -208 -18 -33 -106 -284 -233 -659 -44 -130 -63
-200 -59 -217 8 -30 47 -57 81 -57 14 0 22 -4 20 -8 -6 -9 25 -23 33 -15 3 3
-1 5 -8 5 -30 0 4 15 36 15 21 1 34 -3 34 -12 0 -7 -6 -10 -15 -7 -8 4 -15 2
-15 -3 0 -18 33 -10 38 9 2 10 12 19 21 19 26 3 46 6 51 8 23 11 41 8 36 -5
-3 -9 -1 -12 4 -9 6 3 10 13 10 21 0 8 4 14 9 14 11 0 9 -19 -4 -40 -7 -12 -6
-13 7 -3 8 7 19 9 24 5 4 -4 3 0 -4 9 -9 12 -9 18 0 27 17 17 28 15 28 -4 0
-9 -5 -12 -12 -8 -7 4 -8 3 -4 -4 11 -19 34 -2 29 21 -4 22 -4 22 13 2 13 -15
15 -16 11 -3 -3 9 0 19 8 22 9 3 12 -1 10 -16 -3 -11 -1 -17 3 -14 4 4 8 12 8
17 1 5 2 14 3 19 0 6 5 10 10 10 4 0 7 -11 6 -25 -2 -14 1 -23 5 -20 5 3 6 13
3 22 -4 11 -3 14 6 9 7 -4 24 -9 39 -11 23 -2 24 -1 9 10 -9 6 -13 16 -9 21 4
4 -1 2 -11 -5 -9 -8 -20 -11 -24 -7 -11 10 6 19 37 19 16 0 27 4 25 8 -5 7 43
24 58 21 4 -1 7 3 7 8 0 6 9 10 19 10 11 0 23 5 26 11 4 6 13 8 21 5 8 -3 14
-1 14 4 0 5 18 18 40 29 22 11 38 15 34 10 -3 -5 0 -9 5 -9 6 0 11 6 11 13 0
8 16 22 35 33 19 10 35 22 35 26 0 4 7 4 17 1 12 -5 14 -3 8 7 -5 9 -4 11 3 6
7 -4 21 -9 33 -11 17 -4 19 -2 9 10 -10 12 -10 15 0 15 8 0 10 3 7 6 -4 4 -13
1 -22 -6 -10 -8 -15 -9 -15 -1 0 6 4 11 10 11 5 0 27 16 49 35 37 33 59 46 46
26 -3 -5 -1 -12 4 -16 6 -3 8 6 5 21 -3 14 -1 23 3 21 5 -3 19 10 32 29 13 19
27 34 32 34 5 0 9 9 9 19 0 11 5 23 10 26 5 3 10 11 10 16 0 12 -17 8 -128
-33 -62 -23 -86 -38 -97 -57 -45 -88 -284 -221 -396 -221 -52 0 -73 28 -54 73
13 32 15 39 15 56 0 5 9 11 21 14 12 3 18 10 15 15 -3 6 -1 13 4 15 6 3 5 4
-2 3 -7 -2 -12 -9 -11 -15 2 -6 -2 -11 -7 -11 -13 0 -13 6 1 31 5 11 13 18 17
15 4 -2 16 8 26 23 l20 26 -22 -19 c-12 -11 -25 -16 -29 -12 -4 4 -2 11 6 15
7 5 12 10 11 12 -4 11 13 58 20 54 13 -8 19 22 8 33 -8 8 -7 13 5 18 9 3 17
10 17 16 0 5 -4 6 -10 3 -5 -3 -1 14 10 39 11 26 17 46 14 46 -2 0 2 13 10 29
9 16 12 32 8 36 -4 5 1 5 10 2 10 -4 18 -2 18 3 0 6 -6 10 -12 10 -10 0 -10 2
0 9 8 4 13 11 13 15 -5 33 0 45 16 39 15 -5 16 -3 5 8 -17 18 -15 25 11 50 12
12 16 18 8 14 -14 -8 -11 10 14 72 7 17 13 33 12 35 -1 2 3 -2 9 -9 20 -23 25
-13 7 14 -10 15 -12 24 -5 20 6 -5 12 -4 12 2 0 6 -5 11 -12 11 -6 0 -4 6 7
13 11 9 15 19 10 27 -6 9 -4 12 6 8 10 -4 15 1 17 15 1 18 -1 19 -9 7 -13 -18
-8 -5 10 33 8 15 19 27 24 27 5 0 4 -6 -2 -14 -11 -13 -4 -15 27 -7 1 1 -3 11
-9 24 -6 12 -8 19 -4 15 4 -4 17 3 29 16 27 28 57 41 49 21 -3 -8 -9 -12 -14
-9 -5 3 -9 1 -9 -5 0 -5 9 -9 19 -8 10 0 17 6 15 12 -7 17 21 49 35 41 7 -5
10 -14 7 -22 -10 -27 9 -14 22 14 16 37 78 59 102 37 15 -13 17 -13 17 0 0 8
-4 12 -9 9 -4 -3 -8 -2 -8 3 0 11 80 44 91 37 5 -3 9 -10 9 -16 0 -7 -4 -7
-13 0 -10 8 -13 6 -14 -11 -2 -15 0 -18 6 -9 5 8 12 14 17 15 5 1 9 8 9 15 0
15 45 43 58 35 4 -2 14 1 22 7 11 9 15 9 15 1 0 -6 13 -10 30 -9 20 1 26 6 20
12 -16 16 -11 30 5 16 9 -7 18 -10 22 -7 3 4 11 3 17 -3 8 -6 12 -2 13 13 1
12 -1 17 -5 12 -10 -14 -42 -18 -42 -5 0 5 3 9 8 8 4 -1 24 4 45 11 28 10 42
22 52 45 18 45 27 86 18 86 -5 -1 -48 -16 -98 -35z m-50 -135 c3 -5 -1 -10 -9
-10 -9 0 -16 5 -16 10 0 6 4 10 9 10 6 0 13 -4 16 -10z m-335 -114 c0 -3 -4
-8 -10 -11 -5 -3 -10 -1 -10 4 0 6 5 11 10 11 6 0 10 -2 10 -4z"/>
<path d="M4740 2891 c-107 -37 -312 -107 -455 -155 -297 -101 -645 -244 -600
-246 37 -1 316 91 545 180 390 152 466 181 485 190 11 5 67 28 125 51 101 39
124 50 104 48 -5 0 -97 -31 -204 -68z"/>
<path d="M1993 2930 c1 -11 5 -20 10 -20 5 0 7 6 4 14 -3 8 -1 17 6 20 7 2 5
5 -5 5 -11 1 -16 -6 -15 -19z"/>
<path d="M2718 2933 c7 -3 16 -2 19 1 4 3 -2 6 -13 5 -11 0 -14 -3 -6 -6z"/>
<path d="M4266 2914 c-9 -24 -7 -31 5 -11 6 9 15 14 21 11 7 -4 8 -2 4 4 -10
17 -23 15 -30 -4z"/>
<path d="M2712 2915 c4 -4 3 -14 -4 -22 -6 -7 -9 -15 -7 -18 3 -2 10 4 17 15
9 15 9 21 -1 26 -6 4 -9 4 -5 -1z"/>
<path d="M1407 2895 c-4 -8 -1 -17 6 -21 7 -4 9 -4 5 1 -4 4 -3 14 3 22 7 8 8
13 1 13 -5 0 -12 -7 -15 -15z"/>
<path d="M1536 2883 c-6 -14 -5 -15 5 -6 7 7 10 15 7 18 -3 3 -9 -2 -12 -12z"/>
<path d="M1560 2880 c-6 -11 -8 -20 -6 -20 3 0 10 9 16 20 6 11 8 20 6 20 -3
0 -10 -9 -16 -20z"/>
<path d="M1980 2891 c0 -6 4 -13 10 -16 6 -3 7 1 4 9 -7 18 -14 21 -14 7z"/>
<path d="M1970 2861 c0 -6 4 -13 10 -16 6 -3 7 1 4 9 -7 18 -14 21 -14 7z"/>
<path d="M4176 2845 c-3 -8 -1 -15 4 -15 6 0 10 7 10 15 0 8 -2 15 -4 15 -2 0
-6 -7 -10 -15z"/>
<path d="M1386 2836 c4 -11 0 -14 -15 -11 -12 2 -19 0 -16 -5 7 -11 38 -6 42
7 2 6 -1 14 -6 18 -7 3 -8 0 -5 -9z"/>
<path d="M4140 2840 c0 -5 5 -10 11 -10 5 0 7 5 4 10 -3 6 -8 10 -11 10 -2 0
-4 -4 -4 -10z"/>
<path d="M1955 2821 c-3 -5 -2 -12 3 -15 5 -3 9 1 9 9 0 17 -3 19 -12 6z"/>
<path d="M4940 2810 c-9 -6 -10 -10 -3 -10 6 0 15 5 18 10 8 12 4 12 -15 0z"/>
<path d="M4054 2783 c-17 -16 -22 -22 -12 -14 10 8 18 10 18 5 0 -5 5 -1 11 9
5 9 15 17 20 17 6 0 7 -5 3 -12 -4 -7 -3 -8 5 -4 11 7 6 26 -7 26 -4 0 -21
-12 -38 -27z"/>
<path d="M4700 2731 c-107 -37 -292 -100 -410 -140 -221 -75 -426 -155 -540
-211 -57 -28 -60 -31 -28 -25 44 7 167 44 293 87 115 39 895 345 904 354 12
12 -43 -5 -219 -65z"/>
<path d="M2670 2779 c0 -5 5 -7 10 -4 6 3 10 8 10 11 0 2 -4 4 -10 4 -5 0 -10
-5 -10 -11z"/>
<path d="M4010 2780 c-9 -6 -10 -10 -3 -10 6 0 15 5 18 10 8 12 4 12 -15 0z"/>
<path d="M1196 2762 c-3 -5 1 -9 9 -9 8 0 12 4 9 9 -3 4 -7 8 -9 8 -2 0 -6 -4
-9 -8z"/>
<path d="M3975 2761 c-9 -15 15 -25 28 -12 9 9 7 10 -7 5 -13 -5 -17 -4 -12 4
4 7 5 12 2 12 -3 0 -7 -4 -11 -9z"/>
<path d="M1145 2749 c-4 -6 -4 -13 -1 -16 3 -4 6 -1 6 6 0 9 5 9 20 1 11 -6
20 -8 20 -6 0 13 -39 26 -45 15z"/>
<path d="M3901 2731 c-18 -14 -21 -20 -11 -26 9 -6 11 -4 5 5 -6 10 -4 12 11
6 10 -4 15 -4 11 0 -4 4 -2 13 4 21 16 18 9 16 -20 -6z"/>
<path d="M2650 2730 c-11 -7 -11 -10 -2 -10 8 0 10 -5 6 -12 -4 -7 -3 -9 1 -5
7 6 17 37 12 37 -1 0 -9 -5 -17 -10z"/>
<path d="M1060 2715 c-7 -9 -10 -18 -7 -21 3 -3 10 4 17 15 13 25 8 27 -10 6z"/>
<path d="M3930 2719 c0 -5 5 -7 10 -4 6 3 10 8 10 11 0 2 -4 4 -10 4 -5 0 -10
-5 -10 -11z"/>
<path d="M3176 2688 c3 -4 11 -5 19 -1 21 7 19 12 -4 10 -11 0 -18 -5 -15 -9z"/>
<path d="M3805 2690 c-3 -5 -1 -11 4 -14 5 -4 12 -2 16 3 3 6 13 7 23 4 9 -3
14 -3 11 1 -10 11 -48 15 -54 6z"/>
<path d="M950 2680 c-7 -4 3 -7 24 -7 20 1 36 4 36 8 0 9 -45 8 -60 -1z"/>
<path d="M2634 2679 c-3 -6 -2 -15 3 -20 5 -5 9 -1 9 11 0 23 -2 24 -12 9z"/>
<path d="M3756 2674 c-4 -9 -4 -19 -1 -22 3 -3 5 0 5 7 0 8 6 11 16 7 14 -5
15 -4 4 9 -16 19 -16 19 -24 -1z"/>
<path d="M4765 2606 c-115 -39 -313 -107 -440 -150 -294 -100 -615 -229 -602
-242 14 -14 300 79 575 187 368 144 687 271 691 275 10 9 -25 -2 -224 -70z"/>
<path d="M3641 2644 c0 -11 3 -14 6 -6 3 7 2 16 -1 19 -3 4 -6 -2 -5 -13z"/>
<path d="M3616 2635 c4 -8 8 -15 10 -15 2 0 4 7 4 15 0 8 -4 15 -10 15 -5 0
-7 -7 -4 -15z"/>
<path d="M3666 2638 c3 -4 11 -5 19 -1 21 7 19 12 -4 10 -11 0 -18 -5 -15 -9z"/>
<path d="M3430 2630 c8 -5 20 -10 25 -10 6 0 3 5 -5 10 -8 5 -19 10 -25 10 -5
0 -3 -5 5 -10z"/>
<path d="M3522 2624 c10 -10 20 -16 22 -13 3 3 -5 11 -17 18 -21 13 -21 12 -5
-5z"/>
<path d="M3540 2635 c0 -8 29 -12 39 -5 9 5 4 8 -13 8 -14 0 -26 -2 -26 -3z"/>
<path d="M2194 2622 c3 -5 0 -13 -6 -15 -9 -4 -10 -6 -1 -6 17 -1 25 16 12 25
-7 4 -9 3 -5 -4z"/>
<path d="M3490 2620 c0 -5 5 -10 11 -10 5 0 7 5 4 10 -3 6 -8 10 -11 10 -2 0
-4 -4 -4 -10z"/>
<path d="M2135 2610 c3 -5 8 -10 11 -10 2 0 4 5 4 10 0 6 -5 10 -11 10 -5 0
-7 -4 -4 -10z"/>
<path d="M793 2588 c-2 -18 0 -20 7 -8 12 18 13 30 2 30 -4 0 -9 -10 -9 -22z"/>
<path d="M2105 2600 c-3 -5 -1 -10 4 -10 6 0 11 5 11 10 0 6 -2 10 -4 10 -3 0
-8 -4 -11 -10z"/>
<path d="M3150 2580 c0 -5 5 -10 11 -10 5 0 7 5 4 10 -3 6 -8 10 -11 10 -2 0
-4 -4 -4 -10z"/>
<path d="M2010 2559 c0 -6 -10 -8 -22 -5 -13 3 -17 3 -10 0 6 -3 9 -10 6 -16
-4 -6 2 -5 15 1 19 10 29 31 16 31 -3 0 -5 -5 -5 -11z"/>
<path d="M1890 2499 c0 -5 5 -7 10 -4 6 3 10 8 10 11 0 2 -4 4 -10 4 -5 0 -10
-5 -10 -11z"/>
<path d="M2572 2498 c-7 -7 -12 -16 -12 -21 0 -5 7 -1 16 8 9 9 14 18 12 20
-2 3 -10 -1 -16 -7z"/>
<path d="M1843 2493 c-17 -6 -17 -20 0 -26 8 -3 13 3 13 14 0 11 0 19 -1 18 0
0 -6 -3 -12 -6z"/>
<path d="M3105 2469 c-4 -6 -4 -13 -1 -16 3 -4 6 -1 6 6 0 7 5 9 12 5 7 -4 8
-3 4 4 -9 15 -13 15 -21 1z"/>
<path d="M711 2444 c0 -11 3 -14 6 -6 3 7 2 16 -1 19 -3 4 -6 -2 -5 -13z"/>
<path d="M3076 2445 c4 -8 8 -15 10 -15 2 0 4 7 4 15 0 8 -4 15 -10 15 -5 0
-7 -7 -4 -15z"/>
<path d="M4588 2367 c-64 -24 -119 -45 -121 -47 -5 -5 -9 -26 -23 -117 -3 -21
-10 -56 -16 -78 -5 -22 -12 -51 -15 -65 -11 -66 -89 -274 -139 -373 -285 -565
-797 -934 -1420 -1023 -179 -25 -423 -20 -589 12 -11 2 -33 7 -50 10 -266 48
-605 215 -826 406 -43 37 -82 68 -85 68 -4 0 -69 -23 -144 -51 l-138 -51 77
-75 c225 -221 472 -375 796 -496 105 -39 315 -87 451 -104 102 -12 449 -9 524
5 36 6 83 14 105 17 22 4 90 19 151 35 363 93 699 284 959 545 128 127 174
183 270 325 190 281 290 545 350 920 10 64 16 180 8 179 -4 0 -61 -19 -125
-42z"/>
<path d="M660 2346 c0 -2 7 -7 16 -10 8 -3 12 -2 9 4 -6 10 -25 14 -25 6z"/>
<path d="M2770 2341 c0 -5 7 -12 16 -15 14 -5 15 -4 4 9 -14 17 -20 19 -20 6z"/>
<path d="M2746 2327 c3 -10 9 -15 12 -12 3 3 0 11 -7 18 -10 9 -11 8 -5 -6z"/>
<path d="M1775 2299 c-4 -6 -4 -13 -1 -16 3 -4 6 -1 6 6 0 7 5 9 12 5 7 -4 8
-3 4 4 -9 15 -13 15 -21 1z"/>
<path d="M3434 2274 c-56 -56 -456 -526 -516 -607 -33 -45 -61 -83 -63 -85 -1
-1 -41 12 -89 29 -87 32 -103 44 -174 138 -12 16 -42 39 -66 51 -45 21 -435
125 -442 117 -3 -2 30 -16 73 -31 267 -94 313 -112 313 -123 0 -28 -7 -27
-195 27 -194 55 -209 59 -213 55 -3 -3 1 -7 9 -9 195 -64 385 -137 387 -150 2
-9 0 -16 -3 -16 -4 0 -82 27 -174 59 -91 32 -177 62 -191 66 -52 15 -10 -6
116 -59 228 -96 243 -103 230 -125 -7 -11 -68 7 -251 74 -177 64 -187 65 -67
6 57 -28 105 -51 107 -51 2 0 36 -15 77 -34 40 -19 102 -44 137 -56 l64 -21
67 20 c38 12 76 21 86 21 27 0 154 -43 154 -52 0 -13 -67 -85 -241 -258 -221
-220 -259 -271 -259 -343 0 -39 31 -93 60 -102 13 -4 33 1 53 12 44 26 167
176 312 378 66 93 141 191 166 219 l46 50 79 -28 c83 -30 347 -157 521 -251
57 -30 115 -55 129 -55 38 0 94 59 94 100 0 54 -29 101 -74 121 -40 17 -58 22
-141 34 -23 3 -50 7 -62 9 -11 3 -37 7 -58 10 -20 4 -40 8 -44 10 -3 2 -24 7
-46 10 -83 13 -325 82 -325 92 0 4 24 30 53 59 167 167 357 418 398 525 30 79
34 141 12 169 l-19 24 -30 -29z"/>
<path d="M655 2280 c-3 -5 -1 -10 4 -10 6 0 11 5 11 10 0 6 -2 10 -4 10 -3 0
-8 -4 -11 -10z"/>
<path d="M2536 2261 c-3 -5 1 -11 9 -14 9 -4 12 -1 8 9 -6 16 -10 17 -17 5z"/>
<path d="M2498 2232 c4 -10 7 -12 10 -4 2 7 9 9 15 5 7 -3 8 -2 4 2 -14 16
-36 14 -29 -3z"/>
<path d="M2377 2204 c-4 -4 -4 -11 -1 -15 7 -12 34 -11 34 1 0 5 -7 6 -17 3
-11 -4 -14 -3 -9 5 8 13 3 16 -7 6z"/>
<path d="M1750 2179 c0 -5 5 -7 10 -4 6 3 10 8 10 11 0 2 -4 4 -10 4 -5 0 -10
-5 -10 -11z"/>
<path d="M2340 2182 c0 -5 7 -9 15 -9 8 0 12 4 9 9 -3 4 -9 8 -15 8 -5 0 -9
-4 -9 -8z"/>
<path d="M2310 2165 c-11 -13 -10 -14 4 -9 9 3 16 10 16 15 0 13 -6 11 -20 -6z"/>
<path d="M2173 2155 c-4 -5 -3 -7 1 -3 5 4 19 3 32 -2 17 -7 22 -6 18 3 -5 15
-43 17 -51 2z"/>
<path d="M579 2108 c-1 -7 -1 -17 0 -22 1 -4 -3 -14 -8 -20 -8 -9 -7 -13 2
-13 8 0 13 14 14 34 1 31 -6 47 -8 21z"/>
<path d="M1650 1929 c0 -5 5 -7 10 -4 6 3 10 8 10 11 0 2 -4 4 -10 4 -5 0 -10
-5 -10 -11z"/>
<path d="M1626 1917 c3 -10 9 -15 12 -12 3 3 0 11 -7 18 -10 9 -11 8 -5 -6z"/>
<path d="M2048 1923 c7 -3 16 -2 19 1 4 3 -2 6 -13 5 -11 0 -14 -3 -6 -6z"/>
<path d="M510 1895 c-11 -13 -10 -14 4 -9 9 3 16 10 16 15 0 13 -6 11 -20 -6z"/>
<path d="M1103 1895 c0 -8 4 -12 9 -9 5 3 6 10 3 15 -9 13 -12 11 -12 -6z"/>
<path d="M1564 1890 c0 -13 4 -16 10 -10 7 7 7 13 0 20 -6 6 -10 3 -10 -10z"/>
<path d="M1541 1884 c0 -11 3 -14 6 -6 3 7 2 16 -1 19 -3 4 -6 -2 -5 -13z"/>
<path d="M1075 1870 c-3 -5 -1 -10 4 -10 6 0 11 5 11 10 0 6 -2 10 -4 10 -3 0
-8 -4 -11 -10z"/>
<path d="M1046 1815 c-11 -8 -17 -17 -14 -20 2 -3 13 4 23 15 21 23 18 25 -9
5z"/>
<path d="M1335 1820 c-3 -5 -1 -10 4 -10 6 0 11 5 11 10 0 6 -2 10 -4 10 -3 0
-8 -4 -11 -10z"/>
<path d="M2030 1810 c8 -5 20 -10 25 -10 6 0 3 5 -5 10 -8 5 -19 10 -25 10 -5
0 -3 -5 5 -10z"/>
<path d="M1775 1802 c-2 -2 -9 -5 -17 -6 -76 -15 -298 -89 -488 -163 -404
-158 -721 -285 -718 -288 6 -6 880 294 1003 344 160 65 275 120 247 118 -13
-1 -25 -3 -27 -5z"/>
<path d="M1250 1785 c-11 -13 -10 -14 4 -9 9 3 16 10 16 15 0 13 -6 11 -20 -6z"/>
<path d="M980 1781 c0 -9 30 -24 36 -18 2 1 -6 8 -16 15 -11 7 -20 8 -20 3z"/>
<path d="M456 1762 c-3 -4 4 -9 15 -9 23 -2 25 3 4 10 -8 4 -16 3 -19 -1z"/>
<path d="M954 1759 c-9 -16 2 -22 21 -11 15 8 16 10 1 15 -8 3 -18 2 -22 -4z"/>
<path d="M450 1729 c0 -5 5 -7 10 -4 6 3 10 8 10 11 0 2 -4 4 -10 4 -5 0 -10
-5 -10 -11z"/>
<path d="M843 1673 c-18 -9 -34 -22 -37 -30 -3 -8 7 -4 23 8 16 12 33 19 38
16 5 -4 10 0 10 8 0 8 -1 15 -1 14 -1 0 -15 -7 -33 -16z"/>
<path d="M890 1679 c0 -5 5 -7 10 -4 6 3 10 8 10 11 0 2 -4 4 -10 4 -5 0 -10
-5 -10 -11z"/>
<path d="M1765 1654 c-179 -53 -334 -106 -500 -171 -496 -195 -695 -275 -695
-280 0 -3 8 -2 18 2 9 4 208 72 442 151 234 79 434 148 445 153 11 5 63 26
115 47 103 41 240 104 240 110 0 6 -10 4 -65 -12z"/>
<path d="M720 1610 c-9 -6 -10 -12 -1 -26 11 -18 11 -18 9 0 -2 10 3 21 11 24
10 3 11 0 5 -9 -6 -11 -4 -11 12 1 10 8 20 15 22 16 2 1 -8 2 -22 2 -13 0 -29
-4 -36 -8z"/>
<path d="M684 1564 c-18 -14 -18 -15 4 -4 12 6 22 13 22 15 0 8 -5 6 -26 -11z"/>
<path d="M630 1559 c0 -5 5 -7 10 -4 6 3 10 8 10 11 0 2 -4 4 -10 4 -5 0 -10
-5 -10 -11z"/>
<path d="M575 1541 c-3 -5 0 -13 6 -17 7 -4 9 -3 5 4 -3 6 3 12 16 15 23 4 23
4 1 6 -12 0 -24 -3 -28 -8z"/>
<path d="M1675 1480 c-88 -27 -207 -67 -265 -88 -132 -50 -538 -210 -565 -222
-11 -5 -74 -30 -140 -56 -112 -44 -156 -64 -110 -51 20 5 453 152 750 254 88
30 174 60 190 68 17 7 80 34 140 59 115 49 187 85 170 85 -5 0 -82 -22 -170
-49z"/>
<path d="M286 1451 c-3 -5 2 -15 12 -22 15 -12 16 -12 5 2 -7 9 -10 19 -6 22
3 4 4 7 0 7 -3 0 -8 -4 -11 -9z"/>
<path d="M230 1428 c-12 -22 -12 -22 6 -6 10 10 15 20 12 24 -4 3 -12 -5 -18
-18z"/>
<path d="M75 1420 c-3 -5 -1 -10 4 -10 6 0 11 5 11 10 0 6 -2 10 -4 10 -3 0
-8 -4 -11 -10z"/>
</g>
</svg>
