<?xml version="1.0" encoding="UTF-8"?>
<!-- Created with Inkscape (http://www.inkscape.org/) -->
<svg width="100" height="84" version="1.1" viewBox="0 0 26.458 22.225" xmlns="http://www.w3.org/2000/svg" xmlns:cc="http://creativecommons.org/ns#" xmlns:dc="http://purl.org/dc/elements/1.1/" xmlns:rdf="http://www.w3.org/1999/02/22-rdf-syntax-ns#">
 <metadata>
  <rdf:RDF>
   <cc:Work rdf:about="">
    <dc:format>image/svg+xml</dc:format>
    <dc:type rdf:resource="http://purl.org/dc/dcmitype/StillImage"/>
    <dc:title/>
   </cc:Work>
  </rdf:RDF>
 </metadata>
 <g transform="translate(0 -274.77)" fill="#fff" stroke="#fff">
  <g transform="matrix(.2109 0 0 .2109 -8.9206 258.1)" stroke-width=".084667">
   <path d="m105.49 184.3c-1.2802-0.0504-3.806-0.28971-5.2406-0.49654-10.995-1.5851-21.3-6.6534-29.158-14.34-1.1223-1.098-1.4777-1.4933-1.3877-1.5436 0.21707-0.12147 5.6839-2.1019 5.8033-2.1023 0.06391 0 0.36596 0.23322 0.67123 0.51877 0.84232 0.78796 2.388 2.0539 3.6225 2.9669 5.989 4.4294 12.978 7.3978 20.287 8.6166 9.3708 1.5625 18.688 0.3174 27.5-3.6749 5.3025-2.4024 10.707-6.2968 14.645-10.552 6.9746-7.5375 11.138-16.467 12.465-26.736 0.0235-0.18187 0.27542-0.29241 2.6506-1.163 1.4436-0.52911 2.6565-0.96256 2.6954-0.96319 0.10491-2e-3 -0.0901 2.2022-0.37445 4.2322-1.2261 8.753-4.6864 17.149-9.9972 24.257-3.6775 4.922-7.9807 8.9688-13.148 12.365-1.9447 1.2779-3.3612 2.0839-5.6533 3.2164-7.8847 3.896-16.582 5.7464-25.38 5.4zm-1.2295-11.187c-0.4715-0.21971-1.0978-0.9414-1.2719-1.4656-0.20984-0.63177-0.14021-1.8052 0.14894-2.51 0.54271-1.3229 1.7247-2.8662 4.7932-6.2582 3.8441-4.2494 5.2976-5.9686 5.8729-6.9463l0.14329-0.24354-1.498-0.39476c-0.82389-0.21712-1.7075-0.41845-1.9636-0.4474-0.55851-0.0631-1.3255 0.13328-2.2993 0.58873-0.35655 0.16678-0.9103 0.34816-1.2306 0.40307-1.1538 0.19787-2.6007-0.22981-8.4928-2.5103-4.1072-1.5897-4.6567-1.8148-4.6567-1.9078 0-0.0789-0.04422-0.0906 4.0217 1.0616 4.6765 1.3252 6.4974 1.8196 6.7019 1.8196 0.25095 0 0.39272-0.26214 0.28912-0.53463-0.0909-0.23919-5e-3 -0.20551-4.7896-1.8781-3.9621-1.3851-5.3561-1.8897-5.6303-2.038-0.62349-0.33718 0.52437-0.0434 6.8404 1.751 1.9694 0.5595 3.6648 1.0053 3.7677 0.99068 0.21776-0.031 0.30508-0.40971 0.12773-0.55403-0.0606-0.0493-1.7675-0.55275-3.7931-1.1188-5.2434-1.4653-6.9427-1.9669-6.9427-2.0493 0-0.0397 0.03608-0.0721 0.08018-0.0721 0.1351 0 3.1752 0.63076 6.6932 1.3887 1.8394 0.39629 3.5105 0.73173 3.7136 0.74542 0.42646 0.0288 0.57736-0.11516 0.48916-0.46655-0.0473-0.18854-0.15263-0.25198-0.71096-0.42829-0.70645-0.22308-4.1003-1.1878-7.7548-2.2044-1.2504-0.34783-2.295-0.65395-2.3213-0.68028-0.17625-0.17625 0.0906-0.13663 4.8487 0.71995 7.2247 1.3006 8.0384 1.5693 9.2287 3.0466 0.87221 1.0826 1.5973 1.7574 2.1788 2.0278 0.44359 0.20627 3.9702 1.3037 4.0038 1.2459 0.20969-0.36114 1.6792-2.7773 1.8908-3.1089 0.30651-0.48025 6.0672-8.1599 9.209-12.277 1.2767-1.6728 1.8638-2.3756 2.0856-2.4961l0.30869-0.16779 0.23697 0.17523c0.53907 0.39859 0.70409 1.2162 0.53803 2.6655-0.20187 1.7619-1.012 3.5991-2.908 6.5949-1.7128 2.7063-5.73 7.9658-7.0794 9.2686-0.19066 0.18408-0.34666 0.36159-0.34666 0.39448 0 0.091 3.6894 0.97088 5.08 1.2115 2.723 0.47119 6.013 0.90454 8.0857 1.065 2.1287 0.1648 3.3112 0.42968 4.0217 0.9008 0.6077 0.40299 1.1646 1.5333 1.2478 2.5326 0.0516 0.61966-0.12485 1.0256-0.72444 1.6666-0.54904 0.58698-0.94807 0.77869-1.6009 0.76915-0.77113-0.0113-1.6457-0.33166-4.0025-1.4663-4.6795-2.2528-8.206-3.658-12.125-4.8316l-1.4441-0.43241-0.50183 0.49407c-0.80788 0.79536-1.2768 1.4754-3.6682 5.3201-2.5218 4.0542-3.9147 6.1555-5.3319 8.0433-1.2004 1.599-1.5313 1.9716-2.091 2.3543-0.56335 0.38513-1.005 0.45829-1.4671 0.243zm-47.395-5.1584c-0.0707-0.17462-0.10334-0.34279-0.07255-0.37371 0.08892-0.0893 32.042-11.782 32.219-11.79 0.11102-5e-3 0.19343 0.09 0.27189 0.31361 0.10658 0.30372 0.10259 0.32459-0.07464 0.39103-1.0267 0.38487-32.157 11.776-32.182 11.776-0.01847 0-0.09144-0.14287-0.16214-0.3175zm-0.38684-3.537c-0.06184-0.17102-0.08003-0.34026-0.04042-0.37609 0.06099-0.0552 32.225-11.856 32.314-11.856 0.04282 0 0.24554 0.68771 0.21195 0.71901-0.04884 0.0455-32.027 11.752-32.202 11.788-0.134 0.028-0.19571-0.0319-0.28368-0.27519zm-0.3754-3.5443-0.12332-0.36195 32.365-11.861 0.15469 0.33596c0.08507 0.18479 0.13962 0.35103 0.12122 0.36943-0.02825 0.0283-28.808 10.588-31.49 11.554l-0.90383 0.3256zm-11.277-1.0705c-1.1163-0.1733-1.8342-0.53169-2.1805-1.0886-0.1537-0.24715-0.18811-0.41931-0.17959-0.8984 0.0097-0.54777 0.27791-1.3688 3.5398-10.837 1.9411-5.6346 3.6594-10.523 3.8184-10.863 0.81537-1.7427 2.6185-3.6204 5.3556-5.5771 1.7773-1.2706 4.8336-2.9397 7.2993-3.9864 1.2413-0.52695 16.691-6.2179 16.742-6.1669 0.01516 0.0151-0.21184 0.70549-0.50443 1.5341l-0.53197 1.5065-6.4347 2.3551c-3.5391 1.2953-6.6693 2.454-6.9561 2.575-1.2049 0.50813-2.9107 1.9049-3.4752 2.8457-0.37999 0.63329-7.7378 21.904-7.7575 22.427-0.03036 0.80195 0.4447 1.1385 1.5941 1.1293 3.1216-0.025 9.1901-3.4795 10.414-5.9282l0.254-0.50818 2.7925-1.0257c1.5359-0.56412 2.8075-1.0107 2.8258-0.99235 0.07159 0.0716-0.68867 1.4686-1.1046 2.0299-1.2686 1.7117-4.1755 4.1319-7.0113 5.8373-2.2066 1.327-3.9606 2.1286-7.1967 3.2888-3.7209 1.334-5.4482 1.8322-7.5453 2.176-1.2199 0.20001-3.029 0.28069-3.7577 0.16756zm29.168-8.9536c0-0.0427 2.305-6.7207 5.1223-14.84s5.1223-14.769 5.1223-14.778c0-8e-3 -0.65722 0.22819-1.4605 0.52596s-1.5011 0.5317-1.5507 0.51984c-0.05227-0.0125 0.12913-0.6434 0.43138-1.5003 0.47672-1.3516 0.54309-1.4875 0.77172-1.5808 0.71337-0.29108 13.943-5.1116 13.966-5.0888 0.01475 0.0147-1.1142 3.3371-2.5088 7.3831-1.3946 4.0459-2.5264 7.3651-2.515 7.376 0.01134 0.0108 2.3276-0.82444 5.1472-1.8562l5.1266-1.8758 2.5321-7.3526c1.3927-4.044 2.5719-7.4005 2.6204-7.4589 0.0923-0.11114 11.049-4.1432 11.106-4.0868 0.0178 0.0178-2.1586 6.3806-4.8363 14.14-2.8271 8.1919-4.8686 14.232-4.8686 14.404 0 0.21815 0.0488 0.323 0.18407 0.39539 0.24592 0.13161 1.0759 0.0476 1.7136-0.17344 0.2754-0.0955 0.51776-0.15652 0.53859-0.13569 0.0507 0.0507-0.90922 2.8079-1.0295 2.9574-0.10916 0.13558-5.2504 2.0247-6.5714 2.4146-1.5675 0.46266-2.4916 0.6237-3.6407 0.63439-0.8371 8e-3 -1.1416-0.0223-1.4566-0.14381-0.82385-0.3179-1.1346-1.0099-0.88563-1.9726 0.0709-0.27415 0.90635-2.7559 1.8566-5.515 0.95024-2.7591 1.7116-5.0165 1.6918-5.0165-0.0885 0-10.311 3.7643-10.335 3.8058-0.01488 0.0256-1.1769 3.3738-2.5823 7.4403l-2.5553 7.3938-5.4187 1.9839c-6.2247 2.2791-5.715 2.1006-5.715 2.0006zm61.274-11.624-0.13545-0.34482 0.27596-0.11531c0.56326-0.23534 31.977-11.726 32.057-11.726 0.0897 0 0.36608 0.59436 0.30484 0.65561-0.027 0.027-32.307 11.873-32.359 11.875-5e-3 0-0.0693-0.15485-0.14378-0.3445zm-23.014-3.7773c0.31916-0.92263 2.8586-8.2879 5.6433-16.367 2.7847-8.0793 5.073-14.703 5.0853-14.719 0.0425-0.0559 11.078-4.0788 11.129-4.0568 0.0517 0.0224-11.106 32.437-11.239 32.651-0.0542 0.0871-9.8889 3.759-11.009 4.1105-0.17668 0.0554-0.15045-0.0531 0.39092-1.6181zm22.634 0.2565c-0.0542-0.17658-0.0709-0.34804-0.0371-0.38102 0.0614-0.06 32.179-11.84 32.281-11.84 0.0643 0 0.29334 0.66575 0.24294 0.70601-0.0485 0.0388-32.024 11.741-32.225 11.793-0.12958 0.0339-0.18335-0.0233-0.26163-0.2784zm-0.36132-3.4792c-0.0468-0.12806-0.10073-0.27767-0.11987-0.33248-0.0209-0.0599 0.24184-0.20007 0.65867-0.3514 0.38141-0.13845 7.6277-2.7936 16.103-5.9002 8.4751-3.1067 15.462-5.6536 15.526-5.6599 0.0958-9e-3 0.39908 0.60887 0.32839 0.66951-0.0619 0.0531-32.229 11.807-32.312 11.807-0.0542 0-0.13683-0.10477-0.18363-0.23283zm-4.4404-3.6645c-1.1163-0.1733-1.8342-0.53169-2.1805-1.0886-0.1537-0.24714-0.1881-0.41931-0.17959-0.8984 0.01-0.54777 0.27791-1.3688 3.5398-10.837 1.9411-5.6346 3.6594-10.523 3.8184-10.863 0.81536-1.7427 2.6185-3.6204 5.3556-5.5771 1.7773-1.2706 4.8336-2.9397 7.2993-3.9864 1.2413-0.52695 16.691-6.2179 16.742-6.1669 0.0152 0.01515-0.21184 0.7055-0.50443 1.5341l-0.53197 1.5065-6.4347 2.3551c-3.5391 1.2953-6.6693 2.4541-6.9561 2.575-1.2049 0.50813-2.9107 1.9049-3.4752 2.8457-0.37999 0.6333-7.7378 21.904-7.7575 22.427-0.0304 0.80194 0.4447 1.1385 1.5941 1.1293 3.1216-0.025 9.1901-3.4795 10.414-5.9282l0.254-0.50818 2.7925-1.0257c1.5359-0.56412 2.8075-1.0107 2.8258-0.99235 0.0716 0.0716-0.68867 1.4686-1.1046 2.0299-1.2686 1.7117-4.1755 4.1319-7.0113 5.8373-2.2066 1.327-3.9606 2.1286-7.1967 3.2888-3.7209 1.334-5.4482 1.8322-7.5453 2.176-1.2199 0.20001-3.029 0.28069-3.7577 0.16756zm-73.906-3.3205c0.38387-2.6552 0.66648-4.1121 1.2354-6.3687 3.5356-14.024 12.655-26.008 25.046-32.914 14.982-8.3504 32.766-8.7645 48.302-1.1247 3.4876 1.715 6.6868 3.7462 9.7367 6.1819 1.2202 0.97446 2.9467 2.4584 2.9849 2.5656 0.0119 0.03328-1.1564 0.49135-2.5963 1.0179l-2.6179 0.95742-1.0444-0.83211c-6.533-5.2052-14.489-8.6387-22.804-9.8411-4.0457-0.58509-9.0071-0.5857-13.081-0.0016-7.65 1.0968-15.045 4.1588-21.209 8.7823-2.4144 1.8109-5.5303 4.728-7.3441 6.8755-4.2115 4.9864-7.1735 10.291-9.1492 16.385-0.51504 1.5886-1.2253 4.3448-1.4663 5.6898-0.13948 0.77854-0.17654 0.87409-0.36872 0.95084-0.60306 0.24084-5.5464 2.036-5.6066 2.036-0.03855 0-0.04667-0.16192-0.01806-0.35983z"/>
   <path d="m105.49 184.27c-4.9564-0.21573-9.5762-1.0726-14.351-2.6618-2.6164-0.87079-4.2623-1.549-6.7733-2.7911-5.07-2.5078-9.3179-5.5204-13.464-9.5484l-1.3384-1.3003 2.9763-1.0872 2.9763-1.0872 0.56098 0.49795c6.6244 5.8802 14.068 9.6458 22.47 11.367 3.2281 0.6614 5.6111 0.88881 9.3133 0.88881s6.0853-0.22741 9.3133-0.88881c7.7746-1.5929 14.955-5.0507 21.084-10.153 1.3891-1.1564 4.472-4.2416 5.6231-5.6274 4.8039-5.7833 8.0816-12.244 9.8144-19.346 0.35323-1.4478 0.76014-3.5948 0.90661-4.7837 0.0574-0.46567 0.14628-0.89035 0.19758-0.94374 0.0917-0.0954 5.2224-1.9987 5.2672-1.9539 0.0126 0.0126-0.0315 0.65068-0.0979 1.4179-0.85073 9.8192-4.4844 19.306-10.4 27.152-1.5391 2.0414-2.6571 3.3137-4.79 5.4512-2.148 2.1526-3.5059 3.3512-5.4955 4.851-9.6676 7.2875-21.785 11.069-33.794 10.546zm-1.397-11.243c-0.32831-0.20022-0.75284-0.68609-0.99431-1.138-0.16615-0.31095-0.19039-0.47872-0.18621-1.2888 6e-3 -1.1435 0.14027-1.5314 0.96135-2.7755 0.78126-1.1838 1.9241-2.5598 4.4455-5.3525 3.4522-3.8236 4.4638-5.0131 5.2562-6.18l0.402-0.59206-0.37024-0.10941c-1.1092-0.32775-3.0356-0.78081-3.3201-0.78081-0.49317 0-1.282 0.22621-2.1098 0.60504-1.8613 0.85176-2.3529 0.74103-10.235-2.3053-3.4652-1.3393-4.2675-1.6736-4.0358-1.6815 0.07879-3e-3 1.9457 0.50619 4.1487 1.1308 6.7611 1.917 6.5491 1.8666 6.7613 1.6109 0.0783-0.0944 0.0868-0.19707 0.0296-0.35984-0.1006-0.28645-6e-3 -0.24882-5.3678-2.1334-4.9839-1.7518-5.3259-1.8787-5.1883-1.9246 0.12708-0.0424 2.1454 0.49879 6.9955 1.8759 2.0417 0.57968 3.7657 1.0334 3.8312 1.0083 0.0691-0.0265 0.119-0.16332 0.119-0.32614 0-0.34411 0.37844-0.21216-4.6143-1.6088-4.7125-1.3183-6.072-1.7217-6.1807-1.8341-0.05769-0.0597-0.03073-0.073 0.08467-0.0419 0.09313 0.0251 0.34078 0.0712 0.55033 0.10247 0.20955 0.0312 2.4003 0.48776 4.8683 1.0145 5.252 1.1209 5.1732 1.1065 5.3369 0.97065 0.15168-0.12589 0.16309-0.53716 0.0182-0.65719-0.12898-0.10688-2.147-0.69747-7.0034-2.0496-2.0241-0.56355-3.7005-1.0471-3.7253-1.0746-0.09644-0.10669 1.1069 0.0778 4.5198 0.69275 7.7867 1.4032 8.4329 1.6215 9.737 3.2905 0.61374 0.78546 1.4168 1.5794 1.7872 1.7667 0.44274 0.224 4.1769 1.3819 4.2363 1.3136 0.01-0.0111 0.46829-0.76314 1.0192-1.6712 0.78875-1.3001 1.759-2.6588 4.5644-6.3923 5.2087-6.9318 7.1404-9.4589 7.3938-9.6727 0.51945-0.43842 0.99482-0.16203 1.2538 0.72898 0.11903 0.40943 0.12389 0.60905 0.0378 1.5514-0.11953 1.3084-0.3256 1.9869-1.0752 3.54-0.97244 2.0148-2.465 4.362-4.6301 7.2813-1.1995 1.6174-3.3109 4.2368-4.0698 5.049l-0.64341 0.68863 1.9243 0.47059c3.2322 0.79044 7.4119 1.4402 11.534 1.793 3.108 0.26601 3.9624 0.61809 4.6122 1.9004 0.25344 0.50012 0.46793 1.2743 0.46793 1.6888 0 0.59186-0.63215 1.5163-1.3468 1.9695-0.31984 0.20283-0.46901 0.24076-0.94682 0.24076-0.81842 0-1.4656-0.2281-3.7177-1.3104-3.1181-1.4985-7.2387-3.2588-9.3076-3.9763-1.1054-0.38331-4.4345-1.4019-4.582-1.4019-0.11484 0-1.1171 1.0502-1.569 1.644-0.14469 0.19014-1.2843 1.984-2.5324 3.9864-4.3286 6.9443-6.6502 10.15-7.76 10.717-0.40997 0.20915-1.0484 0.2126-1.3847 8e-3zm-47.21-5.0874c-0.05704-0.19039-0.08808-0.35897-0.06898-0.37463 0.07933-0.065 32.274-11.828 32.301-11.802 0.01584 0.0158 0.08615 0.16604 0.15624 0.33377 0.11703 0.2801 0.11552 0.3096-0.01847 0.36175-0.08023 0.0312-7.3277 2.6878-16.106 5.9036s-16.005 5.864-16.06 5.885c-0.05887 0.0224-0.14324-0.10491-0.20407-0.30796zm-0.39654-3.5312c-0.05383-0.1754-0.08189-0.33488-0.06235-0.35442 0.0464-0.0464 32.052-11.775 32.211-11.804 0.11002-0.02 0.42018 0.57541 0.3352 0.64345-0.04828 0.0387-32.017 11.738-32.218 11.79-0.13595 0.0356-0.18736-0.0175-0.26634-0.27484zm-0.34378-3.4642c-0.15782-0.34638-0.11936-0.43075 0.26158-0.57377 4.4453-1.6689 31.871-11.653 31.938-11.627 0.05235 0.0201 0.13536 0.16746 0.18448 0.32748l0.0893 0.29097-16.102 5.8989c-8.8563 3.2444-16.141 5.8989-16.188 5.8989s-0.12956-0.097-0.1836-0.21565zm-11.02-1.1404c-1.3589-0.1335-2.1475-0.51582-2.5147-1.2191-0.17067-0.32693-0.16053-1.1652 0.02057-1.7005 1.5216-4.4972 7.0411-20.435 7.1881-20.756 1.2195-2.6638 5.0706-5.8427 10.165-8.3909 1.8151-0.90787 3.4534-1.5884 6.6463-2.7607 8.4711-3.1102 12.575-4.6066 12.592-4.5912 0.0104 9e-3 -0.21576 0.69117-0.50256 1.515l-0.52146 1.4978-0.47109 0.17639c-0.25911 0.097-3.2334 1.1864-6.6094 2.4208-3.4559 1.2636-6.4433 2.4052-6.8363 2.6124-1.3028 0.68689-2.5712 1.8226-3.0512 2.7322-0.29118 0.55169-7.6381 21.738-7.701 22.207-0.13498 1.0063 0.93491 1.4788 2.5896 1.1435 1.5125-0.30646 3.8479-1.2692 5.501-2.2677 1.7573-1.0614 3.4367-2.5797 3.9718-3.5907l0.27348-0.51668 2.7175-0.9938c1.4946-0.54659 2.7401-0.9712 2.7677-0.94357 0.07488 0.0749-0.30699 0.85398-0.74944 1.5291-1.5744 2.4022-5.47 5.4478-9.6366 7.534-1.4213 0.71165-2.4189 1.1301-4.4938 1.8853-4.5738 1.6646-6.9234 2.2784-9.4827 2.4773-0.58208 0.0452-1.0964 0.0778-1.143 0.0723-0.04657-5e-3 -0.37042-0.038-0.71967-0.0723zm28.889-9.0225c0.02463-0.0893 2.3379-6.7675 5.1406-14.84 2.8027-8.0729 5.0842-14.688 5.07-14.701-0.01422-0.0129-0.68826 0.2211-1.4979 0.52001s-1.49 0.52551-1.512 0.50353c-0.02196-0.022 0.18834-0.69938 0.46734-1.5054l0.50728-1.4655 7.0584-2.5873c3.9586-1.451 7.0687-2.5475 7.0818-2.4967 0.01291 0.0498-1.1035 3.3616-2.4809 7.3595-1.3774 3.9979-2.4904 7.2829-2.4733 7.3 0.01707 0.0171 2.338-0.81382 5.1576-1.8464l5.1266-1.8775 2.5518-7.4065c1.4035-4.0735 2.5659-7.4206 2.5832-7.4378 0.0515-0.0515 11.088-4.0879 11.112-4.064 0.0121 0.0121-2.1603 6.3457-4.8275 14.075-2.6672 7.729-4.8765 14.161-4.9095 14.294-0.0404 0.16296-0.0167 0.30789 0.0728 0.4445 0.11278 0.17212 0.20132 0.2027 0.58694 0.2027 0.24977 0 0.76324-0.0895 1.141-0.19896 0.37781-0.10943 0.68693-0.18871 0.68693-0.17618 0 0.0125-0.2319 0.68981-0.51533 1.505-0.33296 0.95769-0.56518 1.5019-0.65617 1.5377-0.78422 0.30863-5.3215 1.9445-5.9405 2.1417-2.1142 0.67382-3.8506 0.94546-4.9911 0.78085-0.73124-0.10555-1.0679-0.27671-1.3454-0.6841-0.17894-0.26261-0.19465-0.3594-0.15728-0.96909 0.0373-0.60904 0.22056-1.1938 1.8175-5.7997 0.97679-2.8173 1.75-5.1326 1.7182-5.1452-0.0888-0.0352-10.285 3.7163-10.342 3.8049-0.02735 0.0429-1.1861 3.3814-2.5751 7.419-1.3889 4.0375-2.5324 7.3511-2.541 7.3635-0.0086 0.0124-2.4503 0.91442-5.4259 2.0045-2.9756 1.0901-5.483 2.0103-5.572 2.0449-0.13144 0.0512-0.15338 0.0325-0.11699-0.0995zm61.27-11.553c-0.0556-0.18551-0.0854-0.35252-0.0663-0.37114 0.078-0.076 32.051-11.763 32.198-11.769 0.10964-5e-3 0.19292 0.089 0.26712 0.30029l0.10781 0.30706-15.549 5.6964c-8.5522 3.133-15.843 5.8038-16.203 5.9352l-0.65334 0.23883zm-23.527-2.206c0-0.15322 11.188-32.542 11.271-32.629 0.0956-0.10058 11.022-4.1113 11.07-4.0634 0.0402 0.0402-11.161 32.561-11.25 32.662-0.0331 0.0375-2.3993 0.92423-5.2583 1.9706-2.859 1.0464-5.341 1.9584-5.5156 2.0267-0.20395 0.0798-0.3175 0.0919-0.3175 0.0339zm23.15-1.3072c-0.0728-0.17419-0.10114-0.34491-0.063-0.37938 0.0515-0.0466 25.847-9.5176 31.506-11.568l0.78747-0.28528 0.12849 0.30752c0.0707 0.16913 0.0973 0.33696 0.0592 0.37295-0.0381 0.036-7.2511 2.6953-16.029 5.9095-8.7778 3.2142-16.027 5.87-16.108 5.9016-0.11533 0.0447-0.17827-0.0133-0.28096-0.25911zm-0.37661-3.5598c-0.0548-0.16611-0.0771-0.32457-0.0495-0.35215 0.0276-0.0276 7.299-2.7064 16.159-5.953l16.108-5.9029 0.138 0.30718c0.0759 0.16895 0.114 0.33381 0.0847 0.36636-0.0572 0.0635-32.156 11.836-32.271 11.836-0.038 0-0.11403-0.1359-0.16885-0.302zm-4.1468-3.5941c-1.3589-0.1335-2.1475-0.51582-2.5146-1.2191-0.17067-0.32693-0.16053-1.1652 0.0206-1.7005 1.5216-4.4972 7.0411-20.435 7.188-20.756 1.2195-2.6638 5.0706-5.8427 10.165-8.3909 1.8151-0.90787 3.4534-1.5884 6.6463-2.7607 8.4712-3.1103 12.575-4.6066 12.592-4.5912 0.0104 0.0094-0.21575 0.69118-0.50256 1.515l-0.52146 1.4979-0.4711 0.17639c-0.2591 0.09701-3.2334 1.1864-6.6094 2.4208-3.4559 1.2636-6.4433 2.4052-6.8363 2.6124-1.3028 0.68689-2.5712 1.8226-3.0512 2.7322-0.29118 0.55169-7.638 21.738-7.701 22.207-0.13498 1.0063 0.9349 1.4788 2.5896 1.1435 1.5125-0.30647 3.8479-1.2692 5.501-2.2677 1.7573-1.0614 3.4367-2.5797 3.9718-3.5907l0.27348-0.51669 2.7175-0.9938c1.4946-0.54659 2.7401-0.9712 2.7677-0.94357 0.0749 0.0749-0.307 0.85398-0.74945 1.5291-1.5744 2.4022-5.47 5.4478-9.6366 7.534-1.4213 0.71164-2.4188 1.1301-4.4938 1.8852-4.5738 1.6646-6.9234 2.2784-9.4827 2.4773-0.58208 0.0452-1.0964 0.0778-1.143 0.0723-0.0466-5e-3 -0.37042-0.038-0.71967-0.0723zm-74.113-3.7832c1.8144-13.125 8.3951-25.075 18.43-33.468 3.0354-2.5389 6.3817-4.7027 10.152-6.5649 6.0037-2.965 12.215-4.6666 19.03-5.2135 1.8848-0.15123 6.0457-0.1289 7.9587 0.04272 10.125 0.90834 19.316 4.4338 27.474 10.538 1.5212 1.1382 4.1918 3.4205 4.1063 3.5092-0.0332 0.0345-3.0731 1.1635-4.8334 1.7952l-0.30374 0.10899-0.96626-0.76552c-5.2992-4.1983-11.508-7.2839-17.9-8.8959-4.1275-1.041-7.3407-1.4418-11.557-1.4418-2.7914 0-4.43 0.11871-6.9427 0.50298-8.4035 1.2852-16.236 4.8312-22.86 10.349-1.2973 1.0807-4.4924 4.2837-5.5866 5.6004-5.185 6.2392-8.6388 13.444-10.243 21.366-0.13037 0.644-0.2702 1.1997-0.31074 1.2348-0.0533 0.0463-4.3052 1.6207-5.6704 2.0997-0.06596 0.0232-0.05968-0.21073 0.02136-0.797z"/>
   <path d="m104.6 184.21c-12.859-0.84857-24.549-6.0371-33.701-14.958-0.92956-0.90605-1.2364-1.2539-1.1546-1.3087 0.06127-0.0411 1.3867-0.54029 2.9453-1.1093l2.8339-1.0346 0.94938 0.83732c6.306 5.5616 13.706 9.2871 21.802 10.977 3.4087 0.71138 5.7316 0.93892 9.5851 0.93892 3.1552 0 4.1229-0.062 6.6762-0.42792 7.7935-1.1168 15.36-4.253 21.645-8.9712 3.348-2.5135 6.8739-6.0406 9.3897-9.3928 4.7042-6.2681 7.862-13.849 8.9781-21.552 0.10852-0.74906 0.22181-1.3864 0.25177-1.4164 0.0299-0.03 1.2058-0.47684 2.6131-0.99309l2.5586-0.93864 0.0265 0.32926c0.0334 0.41563-0.19035 2.7073-0.41069 4.206-1.3512 9.19-5.1776 18.003-10.944 25.205-2.4991 3.1214-5.6495 6.2314-8.7536 8.6414-8.2721 6.4222-18.263 10.216-28.813 10.941-1.1172 0.0768-5.4519 0.0952-6.477 0.0276zm-0.62198-11.287c-0.72155-0.52268-1.1146-1.343-1.1127-2.3222 3e-3 -1.702 1.0652-3.279 5.5059-8.1761 2.3757-2.6199 3.4017-3.7918 4.2254-4.8256 0.75819-0.95171 1.3927-1.8576 1.3388-1.9115-0.0923-0.0923-2.962-0.81037-3.4149-0.85447-0.64785-0.0631-1.3811 0.113-2.3382 0.56151-1.7958 0.84152-2.4849 0.69406-9.5937-2.0526-3.858-1.4906-4.7239-1.8426-4.6688-1.8977 0.02141-0.0214 1.6639 0.42224 3.6499 0.98591 3.335 0.94653 6.2865 1.7658 6.8337 1.897 0.37757 0.0905 0.60658-0.25266 0.41167-0.61685-0.11407-0.21315-0.41962-0.33198-4.6792-1.8198-4.8103-1.6802-5.9658-2.1041-5.8454-2.1442 0.11222-0.0374 1.8213 0.42412 6.987 1.8868 2.0377 0.57697 3.7617 1.0272 3.8312 1.0006 0.0764-0.0293 0.12633-0.15801 0.12633-0.32548 0-0.22309-0.0453-0.29519-0.23283-0.37044-0.12806-0.0514-1.9473-0.57228-4.0428-1.1575-4.7334-1.322-6.4105-1.8156-6.5193-1.9187-0.05402-0.0512-8e-3 -0.0639 0.127-0.0352 0.11642 0.0247 0.44027 0.0879 0.71967 0.14033 0.2794 0.0524 2.3558 0.49016 4.6143 0.97271 5.2083 1.1128 5.2056 1.1123 5.3721 0.9741 0.15949-0.13236 0.17256-0.5411 0.0213-0.66663-0.14211-0.11793-2.311-0.75545-7.0021-2.0582-2.1493-0.59689-3.6687-1.0577-3.5373-1.0729 0.26265-0.0303 7.1849 1.1967 9.2946 1.6474 1.6484 0.35218 2.7565 0.69584 3.3522 1.0396 0.23719 0.13687 0.69439 0.54164 1.016 0.8995 1.4594 1.624 1.8472 1.9922 2.3598 2.2414 0.39978 0.19426 3.806 1.2649 4.0332 1.2677 0.028 0 0.46618-0.6939 0.97367-1.5428 0.91106-1.524 3.5567-5.1316 9.6405-13.146 2.3259-3.0641 2.5174-3.2766 2.9212-3.2423 0.36985 0.0314 0.62932 0.38871 0.76824 1.0579 0.14027 0.67565-0.0284 2.203-0.35665 3.2302-0.30809 0.96406-1.408 3.1505-2.3063 4.5844-1.7686 2.8232-5.5726 7.8492-7.1993 9.512-0.3119 0.31882-0.55328 0.59349-0.5364 0.61037 0.0169 0.0169 0.86728 0.23815 1.8898 0.49171 3.0742 0.76235 7.4069 1.4344 11.526 1.7877 2.293 0.1967 3.3383 0.46508 3.9926 1.0252 0.44821 0.38365 0.90425 1.3136 1.0441 2.1292 0.0992 0.5786 0.0945 0.62717-0.10298 1.0536-0.25841 0.55804-1.053 1.369-1.4792 1.5097-0.42698 0.14091-1.3012 0.0663-1.9875-0.16952-0.30268-0.10402-1.4838-0.63795-2.6247-1.1865-3.3078-1.5904-6.9502-3.1275-9.3411-3.9419-1.5711-0.53513-4.1202-1.3068-4.3169-1.3068-0.0753 0-0.47159 0.37739-0.88062 0.83866-0.60274 0.6797-1.1766 1.5342-3.0279 4.5085-4.3394 6.9718-6.6182 10.151-7.8289 10.923-0.53561 0.34138-1.1163 0.33616-1.6002-0.0144zm-47.082-4.9679c-0.05926-0.16388-0.07533-0.32935-0.03572-0.36771 0.03962-0.0384 7.2729-2.7066 16.074-5.9294 8.8011-3.2228 16.046-5.8763 16.099-5.8966 0.11872-0.045 0.3313 0.55634 0.22928 0.64865-0.05365 0.0485-25.277 9.3114-31.491 11.564l-0.76861 0.27869zm-0.3839-3.5464c-0.0728-0.17422-0.11951-0.32961-0.1038-0.34532 0.05761-0.0576 32.161-11.799 32.261-11.799 0.12407 0 0.33489 0.51792 0.24554 0.60323-0.03453 0.033-7.2617 2.6961-16.06 5.9181-8.7987 3.222-16.045 5.8765-16.104 5.8988-0.06226 0.0239-0.16051-0.09-0.23829-0.27611zm-0.386-3.5561c-0.05482-0.16611-0.08635-0.31462-0.07007-0.33003 0.01629-0.0154 7.2825-2.6846 16.147-5.9315 12.876-4.716 16.133-5.88 16.193-5.7871 0.10096 0.15508 0.18893 0.49546 0.14055 0.54384-0.05306 0.0531-32.146 11.807-32.238 11.807-0.04045 0-0.11841-0.13591-0.17323-0.302zm-10.962-1.0537c-1.0898-0.0989-1.7193-0.31457-2.1877-0.74947-0.36668-0.34041-0.47927-0.6275-0.47927-1.2221 0-0.49304 0.32-1.4726 3.5626-10.905 1.9594-5.6998 3.6962-10.63 3.8594-10.956 0.48072-0.95971 1.1731-1.8401 2.3514-2.99 2.3981-2.3403 6.0407-4.6206 10.208-6.3902 1.6864-0.71612 16.586-6.1926 16.657-6.1222 0.03462 0.0346-0.86683 2.7901-0.95181 2.9094-0.0088 0.0123-2.984 1.1094-6.6117 2.4379s-6.8617 2.5501-7.1867 2.7146c-1.4794 0.74863-2.9633 2.1339-3.3503 3.1276-0.45463 1.1674-7.4656 21.58-7.5018 21.841-0.06437 0.46549 0.1365 0.91909 0.49321 1.1137 0.41678 0.22742 1.7502 0.20684 2.675-0.0413 3.7003-0.99282 7.873-3.7095 8.9333-5.8163l0.21306-0.42333 2.7288-0.99826c1.5008-0.54905 2.7506-0.97644 2.7773-0.94978 0.07575 0.0757-0.4694 1.1277-0.89986 1.7364-0.90255 1.2763-3.1633 3.3501-5.1982 4.7683-2.6851 1.8714-5.1884 3.1236-8.9847 4.4943-5.4855 1.9806-8.5632 2.6513-11.107 2.4204zm28.848-8.993c1.1193-3.1514 10.235-29.548 10.212-29.571-0.01842-0.0184-0.69733 0.21071-1.5087 0.50918-0.81136 0.29848-1.4892 0.52874-1.5062 0.51171-0.02782-0.0278 0.96871-2.9352 1.0182-2.9706 0.12999-0.0929 14.05-5.1318 14.083-5.0982 0.02535 0.0253-1.0851 3.3282-2.4676 7.3396-1.3825 4.0114-2.4951 7.3121-2.4723 7.3349 0.02274 0.0227 2.3495-0.80376 5.1707-1.8367 4.7044-1.7224 5.1355-1.8963 5.2044-2.0986 0.0413-0.12133 1.1926-3.4651 2.5583-7.4305l2.4832-7.2099 5.4907-2.01c3.0199-1.1055 5.5136-1.9871 5.5416-1.9591 0.028 0.028-2.1223 6.3487-4.7786 14.046-2.6562 7.6973-4.8558 14.1-4.8879 14.228-0.0391 0.15638-0.0128 0.30313 0.0799 0.4445 0.1217 0.18575 0.19858 0.21105 0.64111 0.21105 0.29759 0 0.76592-0.0836 1.1474-0.2047 0.39821-0.12645 0.63082-0.16691 0.60855-0.10583-0.0198 0.0544-0.25746 0.73405-0.52804 1.5104l-0.49198 1.4115-2.8015 1.0282c-3.8556 1.415-5.1098 1.7751-6.7903 1.9494-0.92115 0.0955-1.8426 2e-3 -2.2987-0.23337-0.49377-0.25478-0.69755-0.62292-0.69755-1.2601 0-0.47766 0.19893-1.1147 1.8238-5.8402 1.0031-2.9172 1.8127-5.3122 1.7992-5.3223-0.0135-0.0101-2.3641 0.84246-5.2235 1.8945l-5.1989 1.9128-2.5211 7.3237c-1.3866 4.028-2.5525 7.3745-2.5908 7.4366-0.03831 0.0621-2.2983 0.92868-5.0223 1.9257-2.7239 0.99697-5.2142 1.909-5.5339 2.0267-0.38333 0.14113-0.56824 0.17733-0.54303 0.10634zm61.294-11.542c-0.0541-0.1186-0.0981-0.26148-0.0978-0.3175 0-0.0582 6.8826-2.6203 16.066-5.9806 8.8358-3.2333 16.109-5.8934 16.162-5.9113 0.10054-0.0336 0.3361 0.54752 0.25488 0.62875-0.0629 0.0629-32.08 11.792-32.194 11.795-0.0507 1e-3 -0.13646-0.0953-0.1905-0.21389zm-23.521-2.3446c0.10618-0.40606 11.179-32.457 11.235-32.521 0.0914-0.10432 11.041-4.1079 11.064-4.0455 0.0202 0.0548-11.193 32.59-11.252 32.65-0.0185 0.0185-2.5216 0.94536-5.5625 2.0597-4.6641 1.7092-5.522 1.9996-5.4846 1.8568zm23.172-1.1132c-0.0418-0.10986-0.0882-0.26376-0.10329-0.34198-0.0225-0.11722 2.735-1.1538 15.678-5.8939 8.6381-3.1634 15.908-5.8279 16.155-5.9211l0.44926-0.16946 0.12803 0.30642c0.0704 0.16853 0.0968 0.33387 0.0587 0.36744-0.0381 0.0336-7.0225 2.6054-15.521 5.7151-8.4984 3.1097-15.748 5.7628-16.11 5.8956l-0.65872 0.24157zm-0.42635-3.6484c-0.0562-0.17023-0.0844-0.32728-0.0627-0.349 0.1078-0.10781 32.191-11.805 32.282-11.77 0.0983 0.0377 0.26028 0.53824 0.19396 0.59929-0.0336 0.0309-31.962 11.732-32.172 11.791-0.1 0.0278-0.16787-0.0484-0.24126-0.27081zm-4.1069-3.6012c-1.0898-0.0989-1.7193-0.31457-2.1877-0.74947-0.36669-0.34041-0.47927-0.6275-0.47927-1.2221 0-0.49304 0.31999-1.4726 3.5626-10.905 1.9594-5.6998 3.6962-10.63 3.8594-10.956 0.48072-0.95971 1.1731-1.8401 2.3514-2.99 2.3981-2.3403 6.0407-4.6206 10.208-6.3902 1.6864-0.71612 16.586-6.1926 16.657-6.1222 0.0346 0.03462-0.86683 2.7901-0.95181 2.9094-9e-3 0.01231-2.984 1.1094-6.6117 2.4379-3.6276 1.3285-6.8617 2.5501-7.1867 2.7146-1.4794 0.74864-2.9633 2.1339-3.3503 3.1276-0.45464 1.1674-7.4656 21.58-7.5018 21.841-0.0644 0.46549 0.1365 0.91909 0.49321 1.1137 0.41678 0.22742 1.7502 0.20684 2.675-0.0413 3.7003-0.99282 7.873-3.7095 8.9333-5.8162l0.21305-0.42334 2.7288-0.99826c1.5008-0.54905 2.7506-0.97644 2.7773-0.94978 0.0757 0.0757-0.4694 1.1277-0.89986 1.7364-0.90255 1.2763-3.1633 3.3501-5.1982 4.7683-2.6851 1.8714-5.1884 3.1236-8.9847 4.4943-5.4855 1.9806-8.5632 2.6513-11.107 2.4204zm-74.174-3.4881c0.32526-2.9253 1.3885-7.405 2.5277-10.65 4.6008-13.106 13.763-23.564 25.926-29.595 2.4088-1.1943 4.1121-1.9019 6.5193-2.7085 3.7533-1.2576 7.2768-2.0205 11.345-2.4565 1.7403-0.18649 6.575-0.25995 8.4554-0.12848 11.637 0.81365 22.517 5.3591 31.405 13.12 0.54529 0.47619 0.99141 0.89194 0.99139 0.92388-1e-5 0.03195-0.88478 0.38194-1.9662 0.77776-1.0814 0.39582-2.2399 0.82047-2.5745 0.94367l-0.60839 0.224-0.53694-0.44269c-1.6265-1.341-4.3589-3.2226-6.3366-4.3637-0.58208-0.33583-1.8584-1.0037-2.8363-1.4841-13.206-6.4876-28.216-6.484-41.273 0.01001-4.5802 2.2779-8.0744 4.7618-11.701 8.3177-0.91921 0.90127-2.0992 2.1311-2.6222 2.733-5.3865 6.1988-9.0958 13.761-10.747 21.91-0.13603 0.67146-0.2609 1.2344-0.2775 1.251-0.01659 0.0166-1.2262 0.46833-2.6879 1.0038-1.4618 0.53554-2.7486 1.0123-2.8596 1.0595l-0.20182 0.0858z"/>
   <path d="m104.18 184.19c-12.741-0.96382-24.166-6.091-33.272-14.932-0.69716-0.67688-1.2455-1.2527-1.2186-1.2797 0.02694-0.0269 0.55924-0.23497 1.1829-0.4623 0.62366-0.22732 1.9255-0.70227 2.893-1.0554l1.7591-0.64212 1.0349 0.90951c6.987 6.1405 15.519 10.1 24.572 11.403 2.9242 0.42093 6.8893 0.58153 9.6943 0.39265 12.976-0.87377 24.919-6.9104 33.18-16.771 5.6485-6.742 9.3463-15.035 10.584-23.736 0.0917-0.64501 0.18439-1.1904 0.20591-1.2119 0.0215-0.0215 0.49073-0.2055 1.0427-0.40883 0.55196-0.20333 1.6827-0.62001 2.5128-0.92595 0.83008-0.30595 1.5444-0.55626 1.5875-0.55626 0.24474 0-0.19822 3.9454-0.77945 6.9427-1.4873 7.6694-4.8027 15.144-9.5011 21.421-2.976 3.9756-6.4597 7.4652-10.482 10.5-6.6473 5.015-14.682 8.4424-23.016 9.8182-2.9154 0.48128-4.4701 0.60641-7.9163 0.63717-1.723 0.0154-3.5518-4e-3 -4.064-0.0425zm-0.0557-11.178c-0.97236-0.51369-1.4786-1.9659-1.1424-3.2769 0.39298-1.5322 1.5155-3.0296 5.8567-7.8126 1.6589-1.8278 3.2823-3.6897 3.9493-4.5297 0.60794-0.76555 1.2032-1.6471 1.1488-1.7015-0.12618-0.12617-2.9046-0.80879-3.4491-0.84736-0.73327-0.052-1.2893 0.0864-2.4553 0.61106-0.5899 0.26542-0.83951 0.32979-1.3843 0.35697-1.3325 0.0665-2.1431-0.18742-8.7334-2.7356-3.5067-1.3559-4.0436-1.5742-3.9938-1.624 0.01814-0.0181 1.7052 0.44116 3.7491 1.0207 5.5702 1.5794 6.8575 1.9216 7.0089 1.8635 0.17415-0.0668 0.27226-0.44102 0.16222-0.61876-0.14777-0.23871-0.0378-0.19726-6.884-2.5944-2.6428-0.92535-3.6672-1.31-3.6185-1.3587 0.04455-0.0446 2.6767 0.67071 7.0748 1.9225 1.9708 0.56094 3.6327 1.001 3.693 0.97782 0.14987-0.0575 0.21454-0.451 0.0991-0.60319-0.0528-0.0697-1.7643-0.59094-3.9041-1.189-4.724-1.3205-6.7475-1.9161-6.6933-1.9704 0.05703-0.057 0.46332 0.0243 5.465 1.0938 2.3978 0.51275 4.5369 0.95326 4.7535 0.97891 0.35659 0.0422 0.40755 0.0256 0.53951-0.17576 0.13448-0.20525 0.13524-0.23839 0.01-0.42986-0.0748-0.1141-0.26012-0.24336-0.4119-0.28722-0.15178-0.0439-0.99987-0.29003-1.8846-0.54702-0.88476-0.25699-3.1327-0.89091-4.9953-1.4087-1.8627-0.51781-3.4248-0.95953-3.4713-0.9816-0.23094-0.10946 1.176 0.11117 4.4027 0.69039 6.9607 1.2496 7.9785 1.5278 9.0226 2.4664 0.24612 0.22124 0.65986 0.66911 0.91943 0.99526 0.66583 0.8366 1.3386 1.4418 1.8746 1.6863 0.41461 0.18912 3.1589 1.0503 3.7856 1.1879 0.25184 0.0553 0.25888 0.0463 1.2578-1.6088 0.78972-1.3084 1.6952-2.5845 4.2335-5.9666 4.9009-6.5301 7.4604-9.8714 7.7451-10.111 0.48092-0.40468 0.84101-0.25365 1.1586 0.48594 0.13634 0.31746 0.12526 1.884-0.0191 2.693-0.29227 1.6385-1.8019 4.5275-4.0434 7.7382-1.8192 2.6056-4.5642 6.1085-5.696 7.2683-0.31109 0.31882-0.54693 0.59837-0.52409 0.62122 0.0229 0.0228 0.87324 0.24823 1.8898 0.50086 2.6928 0.66922 7.2745 1.4015 10.569 1.6892 3.7743 0.32959 4.6983 0.60676 5.3548 1.6063 0.31286 0.47634 0.58276 1.2371 0.66242 1.8671 0.0454 0.35939 0.0195 0.49787-0.15876 0.84666-0.30712 0.60104-0.73777 1.0646-1.2461 1.3412-0.40465 0.22025-0.49681 0.2374-1.0464 0.19485-0.81931-0.0634-1.5191-0.32964-3.947-1.5013-4.4031-2.1249-7.8727-3.5097-11.853-4.7307l-1.651-0.50646-0.65765 0.69305c-0.84024 0.88546-1.0978 1.2608-3.3208 4.8388-4.4908 7.2282-6.847 10.466-7.9537 10.928-0.40189 0.16793-0.87357 0.1501-1.2469-0.0471zm-47.223-5.094c-0.05173-0.1484-0.06498-0.29673-0.02945-0.32962 0.03553-0.0329 7.2465-2.6898 16.024-5.9042s16.023-5.8691 16.099-5.8992c0.10608-0.0416 0.1643 0.0198 0.24198 0.25517 0.05625 0.17047 0.0696 0.3384 0.02964 0.3732-0.09414 0.082-32.046 11.775-32.174 11.775-0.05365 0-0.13988-0.12176-0.19161-0.27016zm-0.34718-3.4257c-0.04859-0.1328-0.10309-0.28389-0.1211-0.33577-0.029-0.0835 32.009-11.888 32.26-11.887 0.05039 0 0.13319 0.13604 0.18398 0.30154 0.08742 0.28482 0.08026 0.30553-0.13396 0.3875-0.12448 0.0476-7.332 2.6903-16.017 5.8726s-15.856 5.8122-15.937 5.8441c-0.11048 0.0437-0.16894-2e-3 -0.23535-0.18333zm-0.42387-3.6338c-0.05482-0.16611-0.08635-0.31353-0.07007-0.32762 0.0406-0.0351 32.217-11.816 32.273-11.816 0.05621 0 0.25437 0.59325 0.21223 0.63539-0.04411 0.0441-32.176 11.811-32.253 11.811-0.03437 0-0.10733-0.13591-0.16215-0.302zm-11.754-1.1827c-0.70735-0.15351-1.2178-0.40818-1.5293-0.7629-0.29073-0.33112-0.38306-0.70549-0.32886-1.3335 0.05218-0.60457 6.9924-20.775 7.4639-21.692 0.19149-0.37253 0.56372-0.96308 0.82718-1.3123 0.60438-0.80116 2.1574-2.317 3.2059-3.1293 2.4739-1.9164 6.0136-3.8856 9.4466-5.2552 1.6988-0.67773 15.635-5.7626 15.678-5.7201 0.02142 0.0214-0.184 0.68653-0.45648 1.478l-0.49543 1.4391-6.5193 2.3875c-3.5856 1.3131-6.7257 2.4785-6.9779 2.5897-1.192 0.52553-2.8985 1.9467-3.4256 2.8529-0.32756 0.5631-7.7574 22.067-7.7574 22.452 0 1.3535 1.7774 1.5124 4.699 0.42021 3.3643-1.2577 6.5633-3.5453 7.454-5.3302l0.20964-0.42013 2.7215-0.99933c1.4968-0.54964 2.7387-0.98214 2.7597-0.96113 0.02101 0.021-0.05684 0.24583-0.17302 0.4996-0.87346 1.9079-3.7983 4.7002-7.1298 6.8066-2.6263 1.6605-4.5778 2.562-8.7431 4.0384-3.1623 1.1209-5.3932 1.7142-7.4979 1.9938-0.91405 0.12146-2.7831 0.0986-3.4309-0.042zm29.641-8.8651c0.49091-1.3156 10.237-29.543 10.209-29.57-0.02152-0.0215-0.70338 0.20467-1.5152 0.50266-0.81185 0.29799-1.4862 0.53169-1.4986 0.51933-0.01235-0.0124 0.20895-0.68552 0.4918-1.4959l0.51426-1.4734 7.0275-2.57c3.8651-1.4135 7.0454-2.5522 7.0672-2.5303 0.02186 0.0219-1.0907 3.3226-2.4724 7.3349-1.3816 4.0123-2.4912 7.316-2.4657 7.3415 0.05845 0.0584 10.241-3.6692 10.303-3.7718 0.0253-0.0416 1.1868-3.3881 2.5812-7.4366l2.5352-7.361 5.4909-2.0115c3.02-1.1064 5.5116-1.9909 5.5368-1.9657 0.0252 0.0252-2.1483 6.4034-4.83 14.174-2.6817 7.7702-4.8759 14.206-4.8759 14.302 0 0.22389 0.23956 0.43957 0.55589 0.50049 0.14316 0.0276 0.60468-0.0433 1.0891-0.16729 0.46236-0.11832 0.84664-0.20608 0.85396-0.195 7e-3 0.0111-0.2176 0.67468-0.49983 1.4747l-0.51317 1.4545-2.8249 1.0326c-4.5432 1.6607-5.4756 1.8993-7.424 1.8999-1.1619 0-1.3009-0.0161-1.6332-0.19352-0.56431-0.30133-0.71334-0.60733-0.6684-1.3724 0.0327-0.55677 0.25756-1.2713 1.8252-5.7997 0.98335-2.8406 1.7786-5.1878 1.7671-5.216-0.0235-0.0582-10.307 3.6962-10.398 3.7965-0.03264 0.0357-1.1926 3.3605-2.5778 7.3885-1.3851 4.028-2.5465 7.3548-2.5809 7.3929-0.03437 0.0381-2.344 0.90454-5.1325 1.9254-2.7885 1.0209-5.2742 1.933-5.5238 2.0269-0.31023 0.11673-0.44124 0.13706-0.41407 0.0642zm61.278-11.62c-0.0561-0.16993-0.0886-0.31892-0.0724-0.33111 0.0212-0.0159 31.467-11.531 32.216-11.797 0.0954-0.0339 0.33847 0.54309 0.26133 0.62023-0.0475 0.0475-31.859 11.705-32.119 11.771-0.15197 0.0381-0.2008-7e-3 -0.28532-0.26295zm-23.516-2.2661c0.022-0.0582 2.5452-7.3688 5.607-16.246 3.0618-8.877 5.5936-16.183 5.6263-16.236 0.0538-0.087 11.021-4.1591 11.079-4.1136 0.0135 0.0106-2.4197 7.1012-5.4072 15.757-2.9875 8.6556-5.524 16.007-5.6366 16.337l-0.20473 0.59926-5.4794 2.0049c-3.0137 1.1027-5.5121 2.0046-5.552 2.0042-0.0399 0-0.0545-0.0483-0.0325-0.10646zm23.174-1.1379c-0.0479-0.13086-0.10254-0.28241-0.12149-0.33676-0.019-0.0543 0.0298-0.12366 0.10834-0.15401 0.0786-0.0304 7.3247-2.6854 16.102-5.9002 8.7778-3.2148 15.987-5.8616 16.021-5.8819 0.0858-0.0519 0.33831 0.58055 0.2585 0.64748-0.036 0.0302-7.2854 2.6955-16.11 5.9229s-16.073 5.8843-16.108 5.9042c-0.035 0.0199-0.10282-0.0709-0.15068-0.20174zm-0.41142-3.6309c-0.0602-0.16647-0.095-0.31713-0.0773-0.33481 0.0177-0.0177 7.2825-2.6882 16.144-5.9345 13.139-4.8133 16.126-5.8803 16.19-5.7824 0.0946 0.14554 0.19364 0.49867 0.1502 0.53553-0.0347 0.0294-32.223 11.819-32.269 11.819-0.0157 0-0.0778-0.1362-0.13801-0.30267zm-4.9067-3.722c-0.70734-0.15352-1.2178-0.40819-1.5293-0.76291-0.29074-0.33112-0.38306-0.70548-0.32886-1.3335 0.0522-0.60457 6.9924-20.775 7.4639-21.692 0.19149-0.37253 0.56372-0.96308 0.82718-1.3123 0.60438-0.80116 2.1574-2.317 3.2059-3.1293 2.4739-1.9164 6.0136-3.8856 9.4466-5.2552 1.6988-0.67774 15.635-5.7626 15.678-5.7201 0.0214 0.02142-0.184 0.68653-0.45648 1.478l-0.49543 1.4391-6.5193 2.3875c-3.5856 1.3131-6.7257 2.4785-6.9779 2.5897-1.192 0.52553-2.8985 1.9467-3.4256 2.8529-0.32756 0.5631-7.7574 22.067-7.7574 22.452 0 1.3535 1.7774 1.5124 4.699 0.42022 3.3643-1.2577 6.5633-3.5453 7.454-5.3302l0.20964-0.42014 2.7215-0.99933c1.4968-0.54964 2.7387-0.98214 2.7597-0.96112 0.021 0.021-0.0568 0.24583-0.17303 0.49959-0.87345 1.9079-3.7983 4.7002-7.1298 6.8066-2.6263 1.6605-4.5778 2.562-8.7431 4.0384-3.1623 1.1209-5.3932 1.7142-7.4979 1.9938-0.91405 0.12146-2.7831 0.0986-3.4309-0.042zm-73.384-3.3498c0.11033-0.99606 0.5587-3.491 0.86577-4.8175 1.9763-8.5375 5.6493-15.953 11.175-22.563 1.1694-1.3988 3.6221-3.9098 5.1509-5.2734 7.1928-6.4155 16.113-10.679 25.723-12.294 3.2977-0.55424 5.604-0.71518 9.3652-0.65355 2.8412 0.04655 4.1963 0.14778 6.5231 0.4873 8.6838 1.2671 17.106 4.7828 24.121 10.068 1.7531 1.321 4.3394 3.5001 4.2465 3.578-0.0233 0.01951-1.1853 0.45449-2.5823 0.96663l-2.54 0.93117-0.46566-0.36926c-3.1855-2.526-5.7409-4.1619-9.1487-5.8569-8.9765-4.4647-19.261-5.9533-28.951-4.1905-13.359 2.4301-24.795 10.384-31.741 22.076-2.7382 4.6093-4.707 9.7176-5.7629 14.953-0.14516 0.71968-0.27588 1.3204-0.29047 1.335-0.01459 0.0146-1.273 0.48235-2.7964 1.0395-1.5234 0.55711-2.811 1.0384-2.8613 1.0694-0.06407 0.0396-0.07345-0.10547-0.03138-0.48531z"/>
   <path d="m105.07 184.22c-3.3192-0.22939-5.1975-0.46969-7.8317-1.002-4.5228-0.9139-8.7075-2.3584-12.912-4.4568-3.9621-1.9776-7.1521-4.056-10.414-6.7849-1.2554-1.0503-3.804-3.4219-4.0529-3.7715l-0.17534-0.24625 5.8554-2.1415 0.73161 0.66307c7.3271 6.6405 16.717 10.811 26.851 11.927 1.7469 0.19225 7.3696 0.21963 9.0593 0.0441 13.628-1.4156 25.524-8.1042 33.533-18.855 4.6716-6.2706 7.7577-13.753 8.8859-21.545 0.0976-0.67391 0.18948-1.2374 0.20423-1.2521 0.046-0.046 5.0791-1.883 5.1592-1.883 0.14131 0-0.1404 2.9024-0.50541 5.207-1.4074 8.886-5.2635 17.563-10.947 24.633-9.9579 12.387-25.209 19.623-41.114 19.505-1.071-8e-3 -2.1188-0.0263-2.3283-0.0407zm-1.0429-11.288c-0.66215-0.41993-1.16-1.4015-1.1572-2.2813 3e-3 -0.90754 0.3425-1.8041 1.1199-2.9568 0.84726-1.2563 1.9188-2.5176 5.519-6.4964 2.3612-2.6095 4.213-4.8708 4.4108-5.3861 0.0631-0.16433-0.0269-0.1964-1.859-0.66266-0.742-0.18885-1.5421-0.34477-1.778-0.3465-0.58054-4e-3 -1.2655 0.18827-2.1934 0.61661-1.425 0.65779-2.442 0.54668-5.6123-0.61318-1.8859-0.68995-8.298-3.1828-8.4788-3.2964-0.18657-0.11714-0.63304-0.23738 4.5103 1.2146 5.841 1.6489 6.1029 1.7151 6.2631 1.5821 0.17425-0.14461 0.16357-0.53715-0.0191-0.70248-0.19309-0.17474 0.027-0.0929-5.0587-1.8815-4.8961-1.722-5.4028-1.907-5.3546-1.9552 0.03964-0.0396 2.4526 0.62002 7.1958 1.9672 1.8974 0.53891 3.5023 0.95974 3.5663 0.93517 0.17669-0.0678 0.25469-0.48609 0.11642-0.62436-0.064-0.0639-2.0188-0.64989-4.3441-1.3021-4.6335-1.2996-6.2376-1.7668-6.3022-1.8357-0.08206-0.0875 0.76372 0.0805 5.2493 1.0427 2.4913 0.53441 4.7472 0.99507 5.013 1.0237 0.45965 0.0495 0.48819 0.0414 0.58264-0.1659 0.11999-0.26337 0.066-0.43077-0.19358-0.60025-0.19174-0.12519-3.0994-0.97266-8.0267-2.3394-1.3737-0.38106-2.5167-0.71292-2.54-0.73747-0.06811-0.0718 0.57793 0.0351 4.7837 0.7912 7.4952 1.3476 8.0469 1.542 9.4612 3.3345 0.62259 0.7891 1.4987 1.5765 1.987 1.7858 0.38596 0.16544 3.7345 1.1776 3.8959 1.1776 0.0508 0 0.55159-0.75559 1.1129-1.6791 0.81945-1.3482 1.7851-2.6956 4.8994-6.8368 5.2342-6.96 6.8357-9.0476 7.1018-9.2569 0.43519-0.34232 0.77422-0.20194 1.048 0.43393 0.1786 0.41485 0.18947 0.53261 0.14745 1.5969-0.0407 1.0298-0.0775 1.245-0.35495 2.0743-0.7463 2.2306-2.4679 5.1274-5.3292 8.9668-1.6791 2.2531-3.1441 4.0629-4.0551 5.0096l-0.74514 0.77436 2.0994 0.51151c3.3054 0.80536 7.54 1.4547 11.709 1.7956 3.3551 0.2743 4.3598 0.94477 4.7469 3.1677 0.0927 0.53208 0.0867 0.57918-0.12842 1.0189-0.28026 0.57283-0.86685 1.1864-1.3392 1.4008-0.90276 0.40981-1.9397 0.0974-5.4512-1.6422-2.1295-1.055-6.8848-3.0372-8.8348-3.6828-0.58209-0.1927-1.7441-0.55725-2.5823-0.81011l-1.524-0.45973-0.40785 0.39606c-0.8189 0.79522-1.3569 1.5704-3.735 5.3818-3.5757 5.7307-5.607 8.6686-6.859 9.9201-0.94692 0.94651-1.5255 1.1071-2.2754 0.6316zm-47.122-5.0037c-0.05259-0.15084-0.07499-0.29489-0.04978-0.32008 0.0252-0.0252 7.2929-2.7009 16.151-5.9459l16.105-5.9001 0.10617 0.30072c0.0584 0.1654 0.09077 0.31612 0.07196 0.33494-0.04564 0.0456-31.841 11.693-32.092 11.756-0.16322 0.041-0.2116 4e-3 -0.29133-0.22513zm-0.37566-3.5337c-0.11908-0.29728-0.11649-0.31459 0.05686-0.38079 2.8489-1.0879 32.086-11.735 32.137-11.703 0.04059 0.0251 0.11427 0.1617 0.16373 0.30359 0.06755 0.19378 0.06435 0.26721-0.01283 0.29501-0.05652 0.0204-6.9798 2.5557-15.385 5.6341-8.4053 3.0784-15.632 5.7243-16.059 5.8798l-0.77653 0.28269zm-0.38728-3.5351c-0.0602-0.16647-0.09643-0.31198-0.08051-0.32335 0.02013-0.0144 31.001-11.359 32.215-11.796 0.087-0.0313 0.34354 0.54288 0.27092 0.60645-0.03521 0.0308-32.213 11.816-32.262 11.816-0.01854 0-0.08297-0.1362-0.14316-0.30267zm-11.745-1.1725c-1.3833-0.3157-1.9559-0.92462-1.8727-1.9916 0.03451-0.44282 0.76458-2.6498 3.6146-10.927 2.359-6.851 3.6857-10.585 3.9083-11 1.3897-2.5916 5.0678-5.5561 9.8792-7.9628 2.2809-1.1409 3.2275-1.5169 10.811-4.294 3.865-1.4153 7.3281-2.687 7.6957-2.8258 0.36761-0.13886 0.68413-0.23672 0.70339-0.21746 0.07163 0.0716-0.95331 2.8651-1.0754 2.9311-0.06985 0.0378-3.0607 1.1425-6.6463 2.455-3.5856 1.3125-6.8051 2.5384-7.1543 2.7242-1.2552 0.66797-2.5824 1.8597-3.0662 2.7533-0.31811 0.58752-7.623 21.753-7.6678 22.217-0.05293 0.54812 0.14534 0.89388 0.63739 1.1115 0.33428 0.14787 0.50576 0.16607 1.2005 0.12741 2.2401-0.12464 5.8033-1.7517 8.3642-3.8193 0.82972-0.6699 1.3765-1.2774 1.8468-2.0519l0.35338-0.58192 2.698-0.99053c1.4839-0.54479 2.7097-0.97881 2.724-0.96448 0.01433 0.0143-0.05366 0.212-0.15109 0.4393-0.74827 1.7456-3.3252 4.3004-6.4544 6.399-2.534 1.6994-4.8458 2.8367-8.3164 4.0914-3.5152 1.2708-5.5013 1.8597-7.5777 2.2471-1.258 0.23468-3.6856 0.30562-4.4544 0.13016zm29.689-8.96c0.0023-0.0582 2.3008-6.7162 5.1078-14.795 2.807-8.0793 5.0784-14.7 5.0476-14.713-0.03087-0.0129-0.71967 0.21992-1.5307 0.51749-0.811 0.29756-1.4839 0.53381-1.4952 0.52499-0.03614-0.0281 0.98468-2.8637 1.0545-2.9291 0.09128-0.0856 14.007-5.1748 14.046-5.1366 0.01675 0.0168-1.1107 3.3407-2.5054 7.3865-1.3947 4.0458-2.5275 7.3636-2.5173 7.3729 0.03718 0.0338 10.324-3.761 10.385-3.8308 0.0342-0.0396 1.1994-3.382 2.5894-7.4276 2.4757-7.2056 2.5326-7.3579 2.7868-7.4639 0.75518-0.31483 10.74-3.9385 10.77-3.9086 0.0194 0.0194-2.1565 6.3866-4.8352 14.149-2.6788 7.7628-4.8705 14.185-4.8705 14.271 0 0.61625 0.80332 0.73151 2.045 0.29341 0.19363-0.0683 0.36968-0.10658 0.39123-0.085 0.0216 0.0215-0.18374 0.68368-0.45619 1.4714l-0.49537 1.4322-2.9225 1.0642c-4.444 1.6182-5.4533 1.8785-7.2849 1.8789-1.1458 0-1.2578-0.0142-1.641-0.21141-0.56832-0.29246-0.74731-0.63584-0.7061-1.3547 0.0257-0.44824 0.36475-1.5151 1.8276-5.7505 0.98785-2.8601 1.7855-5.2288 1.7726-5.2638-0.0209-0.0568-10.133 3.6048-10.361 3.7517-0.0511 0.0329-1.2291 3.3664-2.6178 7.4077-1.3887 4.0413-2.5472 7.3746-2.5744 7.4074-0.04429 0.0533-10.872 4.0468-10.972 4.0468-0.02265 0-0.0393-0.0476-0.03702-0.10584zm61.219-11.502c-0.0531-0.15229-0.0674-0.30432-0.0319-0.33785 0.0355-0.0335 7.2465-2.6908 16.024-5.9051 8.7778-3.2143 16.018-5.8668 16.09-5.8944 0.0933-0.036 0.16165 0.0363 0.2406 0.2546 0.0606 0.16769 0.0972 0.31779 0.0813 0.33354-0.0336 0.0333-31.965 11.736-32.17 11.79-0.0947 0.025-0.16746-0.0498-0.23395-0.24056zm-23.071-3.5623c2.257-6.5701 10.785-31.255 10.804-31.274 0.0616-0.0616 10.939-4.0183 10.989-3.9976 0.0315 0.0128-2.4735 7.3578-5.5666 16.322l-5.6238 16.299-5.4244 1.9892c-2.9834 1.094-5.4759 2.0014-5.5387 2.0164-0.0761 0.0181 0.0444-0.43477 0.36044-1.3547zm22.699 0.0127c-0.0727-0.18497-0.11954-0.3363-0.10417-0.3363 0.0154 0 7.2568-2.648 16.092-5.8843 8.8352-3.2364 16.109-5.8843 16.165-5.8843 0.0554 0 0.1409 0.13111 0.19007 0.29135 0.0839 0.27344 0.0757 0.29625-0.13396 0.37113-1.0852 0.38756-31.98 11.719-32.022 11.745-0.0302 0.0186-0.11427-0.11745-0.18692-0.30242zm-0.38277-3.5282c-0.0529-0.17226-0.0878-0.32016-0.0777-0.32867 0.0356-0.0299 32.21-11.804 32.256-11.804 0.0844 0 0.23614 0.53825 0.1701 0.60337-0.0475 0.0469-32.158 11.843-32.238 11.843-7e-3 0-0.0567-0.14093-0.10961-0.31319zm-4.8947-3.702c-1.3833-0.3157-1.9559-0.92462-1.8727-1.9916 0.0345-0.44282 0.76459-2.6498 3.6146-10.927 2.359-6.851 3.6857-10.585 3.9083-11 1.3897-2.5916 5.0678-5.5561 9.8792-7.9628 2.2809-1.1409 3.2275-1.5169 10.811-4.294 3.865-1.4153 7.3281-2.687 7.6957-2.8258 0.3676-0.13886 0.68413-0.23672 0.70339-0.21746 0.0716 0.07162-0.95331 2.8651-1.0754 2.9311-0.0699 0.03776-3.0607 1.1425-6.6463 2.455s-6.8051 2.5384-7.1543 2.7242c-1.2552 0.66797-2.5824 1.8597-3.0662 2.7533-0.31811 0.58752-7.623 21.753-7.6678 22.217-0.0529 0.54812 0.14534 0.89388 0.63739 1.1115 0.33428 0.14787 0.50575 0.16607 1.2005 0.12741 2.2401-0.12464 5.8034-1.7517 8.3642-3.8193 0.82971-0.6699 1.3765-1.2774 1.8468-2.0519l0.35338-0.58193 2.698-0.99053c1.4839-0.54479 2.7097-0.9788 2.724-0.96448 0.0143 0.0143-0.0537 0.21201-0.15108 0.4393-0.74827 1.7456-3.3252 4.3004-6.4544 6.399-2.534 1.6994-4.8458 2.8367-8.3164 4.0914-3.5152 1.2708-5.5013 1.8597-7.5777 2.2471-1.258 0.23468-3.6856 0.30562-4.4544 0.13016zm-73.438-2.991c0.0019-0.26436 0.40197-2.707 0.64134-3.9158 1.4499-7.3222 4.5373-14.457 8.8882-20.541 3.546-4.958 8.0897-9.3832 13.102-12.76 7.6319-5.1419 16.306-8.0774 25.713-8.7019 1.8326-0.12166 6.048-0.05196 7.874 0.1302 10.805 1.0779 20.859 5.3062 29.041 12.213 1.7916 1.5125 1.9827 1.6879 1.8964 1.7412-0.1303 0.08052-4.9578 1.8412-5.0483 1.8412-0.0464 0-0.41343-0.26113-0.81573-0.58028-7.7827-6.1744-16.8-9.7144-26.555-10.424-1.5217-0.11072-4.6589-0.11072-6.1807 0-13.611 0.99035-25.86 7.6711-34.012 18.551-4.1683 5.5626-7.212 12.412-8.5781 19.305l-0.22896 1.1553-2.8049 1.0254c-1.5427 0.56399-2.8335 1.0252-2.8684 1.0249-0.03493 0-0.0633-0.0291-0.06304-0.064z"/>
   <path d="m104.48 184.19c-5.8038-0.39873-11.19-1.6338-16.595-3.8054-1.6543-0.66467-5.0106-2.3122-6.5617-3.2211-3.9566-2.3184-7.6147-5.1272-10.605-8.1426l-1.0376-1.0463 5.8647-2.1478 0.72985 0.66825c5.4046 4.9484 12.577 8.7879 19.919 10.664 4.0088 1.0241 7.4086 1.445 11.672 1.445 1.2903 0 2.8374-0.0386 3.4379-0.0859 12.845-1.0105 24.544-7.0015 32.735-16.763 2.3872-2.845 4.3015-5.7854 6.0632-9.3133 2.2779-4.5618 3.7775-9.3434 4.5007-14.351 0.10087-0.6985 0.19093-1.2777 0.20012-1.2871 0.0726-0.0744 5.164-1.8851 5.1999-1.8492 0.0711 0.0711-0.21752 2.9596-0.45722 4.5757-1.269 8.5557-4.7341 16.852-9.9377 23.792-7.7006 10.271-18.913 17.344-31.54 19.896-1.8766 0.37932-4.2196 0.72246-6.096 0.89279-1.3312 0.12082-6.1445 0.17146-7.493 0.0788zm-0.21166-11.126c-0.37346-0.16781-0.93836-0.79206-1.1549-1.2762-0.14789-0.33066-0.18937-0.58088-0.18948-1.143 0-1.8249 0.78742-2.9844 5.8387-8.5937 3.248-3.6067 4.412-5.0009 5.1382-6.154l0.14315-0.2273-0.44283-0.12588c-0.97883-0.27821-2.4197-0.64238-2.9156-0.73691-0.47058-0.0897-0.59876-0.0804-1.2277 0.0891-0.38623 0.10411-0.91178 0.29496-1.1679 0.42409-1.4236 0.71781-2.2372 0.68286-4.8804-0.20962-1.8222-0.61529-10.164-3.8489-9.4211-3.6521 0.0738 0.0195 1.8835 0.53154 4.0217 1.1378 5.9288 1.681 6.5444 1.8403 6.709 1.7367 0.16634-0.10475 0.21851-0.30403 0.1505-0.57498-0.0618-0.24612-0.23815-0.32049-3.3106-1.3959-6.5567-2.2949-7.2194-2.5347-7.0231-2.542 0.11558-4e-3 2.8842 0.75817 7.0482 1.9411 1.8299 0.51985 3.3912 0.93282 3.4696 0.91773 0.22536-0.0434 0.33714-0.4636 0.16826-0.63249-0.0781-0.0781-1.6998-0.5757-3.721-1.1418-5.1572-1.4445-6.6489-1.8846-6.4928-1.9156 0.07583-0.0151 2.1022 0.39401 4.503 0.90903 5.4352 1.1659 5.5668 1.1909 5.751 1.0929 0.19053-0.10146 0.27265-0.43543 0.1592-0.64741-0.11207-0.20939-0.43753-0.31082-5.928-1.8473-2.403-0.67247-4.4071-1.2413-4.4537-1.2642-0.40162-0.19672 8.2336 1.3638 10.085 1.8225 2.0886 0.51749 2.7574 0.91158 3.7893 2.2332 0.68409 0.87608 1.3221 1.4594 1.8735 1.7129 0.53767 0.24718 3.542 1.1507 3.875 1.1654 0.23769 0.0105 0.30325-0.0747 1.262-1.6399 0.76282-1.2454 1.839-2.7534 4.3808-6.1383 4.7104-6.2729 7.1103-9.4221 7.4659-9.7968 0.48455-0.51073 0.89854-0.38263 1.2156 0.37611 0.25539 0.61123 0.12854 2.4102-0.25509 3.6176-0.25073 0.78911-1.1881 2.712-1.9002 3.8982-1.7048 2.8396-5.6116 8.0842-7.5008 10.069l-0.72184 0.75852 0.32269 0.0862c1.2757 0.34059 3.6504 0.88699 4.6407 1.0678 1.8339 0.3348 5.5934 0.85696 7.2813 1.0113 3.4597 0.31634 4.3114 0.4796 5.0342 0.96503 0.67761 0.45509 1.1786 1.4658 1.2527 2.5273 0.0404 0.57828 0.0281 0.63313-0.23126 1.0374-0.37476 0.58401-1.0415 1.1654-1.4682 1.2803-0.78891 0.21242-1.6448-0.0508-4.2911-1.3198-4.842-2.3219-8.2556-3.6863-12.277-4.9071l-1.5663-0.47552-0.72373 0.75002c-0.78452 0.81302-1.016 1.1563-3.9219 5.8181-2.5698 4.1224-4.177 6.4964-5.6499 8.3452-1.1681 1.4663-1.9603 1.9188-2.7432 1.5671zm-47.351-5.1442c-0.05597-0.14827-0.08661-0.28472-0.06811-0.30323 0.04945-0.0495 31.893-11.719 32.105-11.765 0.14188-0.031 0.19964 0.0186 0.27555 0.23633 0.05282 0.15153 0.0853 0.28623 0.07219 0.29935-0.0357 0.0357-32.167 11.802-32.229 11.802-0.02927 0-0.09901-0.12131-0.15497-0.26958zm-0.36439-3.5153c-0.05272-0.15974-0.08076-0.30553-0.06232-0.32397 0.12438-0.12437 32.202-11.797 32.26-11.739 0.04001 0.04 0.08075 0.18021 0.09054 0.31155l0.0178 0.2388-13.123 4.8103c-7.2178 2.6457-14.465 5.3014-16.105 5.9015l-2.9817 1.0912zm-0.39593-3.5401c-0.08856-0.28857-0.08176-0.3086 0.13297-0.39142 0.12448-0.048 7.332-2.6911 16.017-5.8736 8.6847-3.1825 15.849-5.8091 15.921-5.837 0.09351-0.0364 0.16153 0.0355 0.24061 0.25419 0.06064 0.16769 0.09723 0.31426 0.08131 0.3257-0.0207 0.0149-31.486 11.537-32.208 11.794-0.04985 0.0177-0.13264-0.10459-0.18398-0.27187zm-11.472-1.1387c-1.5598-0.28489-2.2578-0.94242-2.1589-2.0337 0.05022-0.55378 6.8939-20.589 7.394-21.646 1.4436-3.052 6.4706-6.8254 12.565-9.4314 1.0304-0.44062 16.614-6.1861 16.658-6.1417 0.02899 0.029-0.92185 2.7824-0.98791 2.8607-0.02773 0.0329-3.0029 1.1417-6.6116 2.464-3.6086 1.3223-6.8088 2.529-7.1115 2.6815-1.3315 0.67088-2.7981 1.9705-3.2683 2.8963-0.12562 0.24731-1.8991 5.2787-3.941 11.181-2.9394 8.4962-3.7126 10.818-3.7126 11.148 0 1.6658 2.663 1.4974 6.5617-0.41494 2.6714-1.3104 4.7058-2.9263 5.5358-4.3971l0.30654-0.54322 2.7092-0.99298c1.49-0.54615 2.7211-0.98187 2.7358-0.96829 0.01463 0.0136-0.10572 0.28576-0.26743 0.60486-1.1034 2.1772-3.9783 4.8166-7.7146 7.0824-2.0763 1.2591-4.0173 2.162-6.8659 3.1938-3.626 1.3133-5.7005 1.9226-7.8102 2.2936-1.0929 0.19222-3.3538 0.284-4.0162 0.16304zm29.415-9.0268c0.02368-0.0893 2.3359-6.7686 5.1382-14.843 2.8023-8.0742 5.0846-14.689 5.0717-14.7-0.01288-0.0107-0.71559 0.23577-1.5616 0.54776l-1.5382 0.56726 0.50329-1.4441c0.27682-0.79427 0.53084-1.4679 0.5645-1.4969 0.07651-0.0659 14.011-5.1642 14.038-5.1362 0.01092 0.0112-1.1205 3.3312-2.5142 7.3777-1.3937 4.0465-2.5222 7.3691-2.5078 7.3836 0.03045 0.0305 10.118-3.6504 10.301-3.7587 0.0671-0.0397 1.2702-3.4032 2.6736-7.4744l2.5517-7.4022 5.489-2.0116c3.019-1.1064 5.5009-1.9997 5.5154-1.9852 0.0145 0.0145-2.1628 6.368-4.8385 14.119-2.6757 7.7508-4.8653 14.19-4.8658 14.309-2e-3 0.4278 0.18033 0.54657 0.8181 0.53344 0.33138-7e-3 0.79387-0.0859 1.084-0.18545 0.2783-0.0955 0.52008-0.15947 0.53727-0.14227 0.0172 0.0172-0.1943 0.67215-0.47001 1.4555l-0.50129 1.4242-2.703 0.9976c-3.1206 1.1517-4.6007 1.6101-5.9499 1.8425-2.74 0.47204-4.0439-0.0523-3.8823-1.5611 0.0255-0.23778 0.86193-2.7945 1.8588-5.6816 0.99686-2.8871 1.7899-5.259 1.7622-5.2709-0.0449-0.0193-10.425 3.7605-10.465 3.8109-0.0091 0.0114-1.1632 3.3498-2.5645 7.4187-1.4013 4.0689-2.5589 7.408-2.5723 7.4202-0.01341 0.0122-2.4437 0.90772-5.4007 1.9901s-5.4301 1.9884-5.4958 2.0133c-0.08449 0.032-0.10685-2e-3 -0.0764-0.1172zm20.627-3.5646c0.06112-0.0245 0.13415-0.0215 0.16228 7e-3 0.02813 0.0281-0.02188 0.0481-0.11112 0.0445-0.09864-4e-3 -0.11869-0.0241-0.05116-0.0512zm40.592-7.9483c-0.0694-0.22601-0.0676-0.31069 7e-3 -0.33842 0.0547-0.0203 7.3194-2.6815 16.144-5.9137l16.044-5.8767 0.10617 0.30225c0.0584 0.16624 0.0965 0.3098 0.0847 0.31903-0.0343 0.0267-32.22 11.809-32.258 11.809-0.0192 0-0.0766-0.13565-0.12744-0.30143zm-23.144-3.3181c0.22466-0.6403 2.7609-7.9858 5.6362-16.323l5.2277-15.159 5.5016-2.0142c3.0259-1.1078 5.5104-2.0014 5.5212-1.9857 0.0321 0.0468-11.196 32.519-11.269 32.59-0.0563 0.055-10.902 4.0565-10.995 4.0565-0.017 0 0.15289-0.52387 0.37756-1.1642zm22.783-0.15368c-0.12652-0.33278-0.11351-0.35179 0.36193-0.529 7.1511-2.6654 31.764-11.61 31.807-11.559 0.0326 0.0392 0.10135 0.17045 0.15268 0.29174l0.0933 0.22052-16.1 5.8968c-8.8552 3.2432-16.13 5.8967-16.166 5.8966-0.0361-8e-5 -0.10275-0.0979-0.14817-0.21731zm-0.39052-3.5652c-0.0689-0.16493-0.11354-0.30846-0.0992-0.31896 0.0197-0.0144 31.729-11.624 32.211-11.793 0.11275-0.0396 0.31742 0.48898 0.22287 0.57559-0.0355 0.0326-7.1131 2.6394-15.728 5.7931-8.6148 3.1536-15.847 5.8034-16.072 5.8884l-0.40882 0.15448zm-4.6227-3.6653c-1.5598-0.28489-2.2578-0.94242-2.1589-2.0337 0.0502-0.55378 6.8939-20.589 7.394-21.646 1.4436-3.052 6.4706-6.8253 12.565-9.4314 1.0304-0.44062 16.614-6.1861 16.658-6.1417 0.029 0.029-0.92185 2.7824-0.98791 2.8607-0.0277 0.03288-3.0029 1.1417-6.6116 2.464-3.6086 1.3223-6.8088 2.529-7.1115 2.6815-1.3315 0.67088-2.7981 1.9705-3.2683 2.8963-0.12562 0.24731-1.8991 5.2787-3.941 11.181-2.9394 8.4962-3.7126 10.818-3.7126 11.148 0 1.6658 2.663 1.4974 6.5617-0.41494 2.6714-1.3104 4.7058-2.9263 5.5358-4.3971l0.30654-0.54321 2.7092-0.99299c1.49-0.54614 2.7211-0.98187 2.7358-0.96829 0.0146 0.0136-0.10572 0.28576-0.26743 0.60486-1.1034 2.1772-3.9783 4.8166-7.7146 7.0824-2.0763 1.2592-4.0173 2.162-6.8659 3.1938-3.626 1.3133-5.7005 1.9226-7.8102 2.2936-1.0929 0.19222-3.3538 0.284-4.0162 0.16304zm-73.724-3.0236c8.46e-4 -0.19611 0.45137-2.9212 0.64175-3.8797 2.5779-12.98 10.008-24.686 20.482-32.273 4.1165-2.9815 8.8698-5.4483 13.674-7.0962 16.121-5.5302 34.096-2.627 48.048 7.7609 1.1907 0.88648 2.9837 2.3535 3.8879 3.181 0.46815 0.42844 0.47835 0.44678 0.28837 0.51841-1.2246 0.46176-4.8829 1.7891-4.931 1.7891-0.0346 0-0.33615-0.22248-0.6701-0.49439-1.6192-1.3185-4.3332-3.1818-6.1528-4.2244-6.4537-3.6977-13.35-5.7955-20.701-6.2969-1.787-0.12191-5.781-0.05138-7.5353 0.13307-9.483 0.997-18.158 4.7174-25.527 10.948-1.2468 1.0541-3.7782 3.5791-4.9005 4.8879-4.3342 5.0548-7.6427 11.102-9.522 17.404-0.43994 1.4753-0.99479 3.722-1.2021 4.8677l-0.13874 0.76661-2.7592 1.0114c-3.04 1.1143-2.9828 1.0952-2.9825 0.99641z"/>
   <path d="m104.98 184.22c-12.904-0.75504-24.895-6.025-33.978-14.932l-1.3385-1.3127 5.8467-2.1317 0.93806 0.83552c3.2584 2.9023 6.6979 5.193 10.786 7.184 4.6333 2.2563 9.3759 3.6895 14.4 4.3519 2.3327 0.30751 3.597 0.38592 6.223 0.38592s3.8903-0.0784 6.223-0.38592c7.9732-1.0511 15.646-4.1811 22.098-9.0147 1.8617-1.3947 3.2301-2.587 4.9983-4.355 2.3754-2.3751 3.956-4.2769 5.702-6.8608 4.1473-6.1375 6.7134-12.812 7.7632-20.193 0.0762-0.53551 0.14403-0.97959 0.15081-0.98684 0.0567-0.0607 5.1695-1.8852 5.1993-1.8554 0.0623 0.0623-0.14184 2.2392-0.36844 3.9299-1.0357 7.7275-3.8366 15.179-8.1998 21.815-7.7567 11.797-19.914 19.912-33.917 22.64-1.432 0.27897-3.9358 0.62898-5.5427 0.77485-1.0217 0.0927-5.9588 0.17156-6.985 0.11151zm-48.724-59.096c1.6669-11.908 6.8143-22.393 15.023-30.601 4.0778-4.0778 8.3349-7.1313 13.508-9.6889 7.0107-3.4662 14.038-5.1943 21.759-5.3509 8.5502-0.17347 16.504 1.6182 24.299 5.4737 2.9334 1.4508 5.7037 3.1517 8.2973 5.0943 1.8646 1.3965 4.3005 3.469 4.191 3.5656-0.0233 0.02055-1.1688 0.44742-2.5456 0.94861l-2.5032 0.91124-0.89304-0.71838c-6.3574-5.1141-14.429-8.6553-22.506-9.8742-3.9783-0.60035-8.6684-0.68061-12.488-0.21372-5.4381 0.66468-10.525 2.2097-15.441 4.6896-4.6086 2.325-8.5676 5.227-12.205 8.9467-6.4122 6.557-10.867 15.086-12.621 24.163l-0.18865 0.97623-2.759 1.0059c-1.5175 0.55326-2.8098 1.0241-2.8718 1.0463-0.08888 0.0319-0.1005-0.0473-0.05484-0.37346z"/>
  </g>
  <g stroke-width=".17857">
   <path transform="matrix(.26458 0 0 .26458 0 274.77)" d="m11.19 36.577c0-0.70527 0.75411-4.2257 1.3365-6.239 2.068-7.1495 5.7217-13.192 11.193-18.509 6.2807-6.1046 14.037-9.8433 23.185-11.176 2.3344-0.34 8.4258-0.29053 10.893 0.088465 7.765 1.1929 14.707 4.2578 20.861 9.2104 1.0137 0.81581 1.7771 1.5482 1.6964 1.6275-0.24178 0.23754-3.6851 1.4338-3.8951 1.3532-0.10689-0.041017-0.83551-0.55771-1.6192-1.1482-4.7452-3.5756-10.401-5.9958-16.597-7.1017-2.2049-0.39357-7.5575-0.53906-9.9107-0.26938-15.648 1.7932-28.197 12.869-32.1 28.331l-0.67149 2.6603-2.0519 0.75097c-1.1286 0.41303-2.1122 0.75517-2.1858 0.76031-0.07366 0.0051-0.13393-0.1473-0.13393-0.33874z"/>
   <path transform="matrix(.26458 0 0 .26458 0 274.77)" d="m25.478 56.989c0.0012-0.08417 1.809-5.3698 4.0173-11.746 2.2083-6.376 3.9858-11.622 3.9499-11.658-0.03589-0.03589-0.52333 0.10614-1.0832 0.31561-0.55987 0.20948-1.0502 0.34858-1.0897 0.30913-0.03945-0.03946 0.06566-0.5014 0.2336-1.0265 0.25601-0.80056 0.40661-0.99761 0.93227-1.2198 0.9091-0.38423 10.247-3.7873 10.393-3.7878 0.06804-2.32e-4 -0.75745 2.5826-1.8344 5.7396-1.077 3.157-1.9274 5.7707-1.8898 5.8083 0.03755 0.03755 1.6264-0.50357 3.5308-1.2025 1.9044-0.69893 3.7339-1.3686 4.0655-1.4882 0.70055-0.25268 0.55414 0.09024 3.0574-7.1611 0.91542-2.6518 1.6812-4.8443 1.7018-4.8723 0.08657-0.11792 8.362-3.0819 8.4754-3.0356 0.06839 0.02794-1.5873 5.0329-3.6793 11.122-2.092 6.0893-3.8071 11.222-3.8113 11.406-0.0067 0.29613 0.10278 0.32546 0.95209 0.25503l0.95969-0.07958-0.35284 1.0448c-0.40333 1.1943-0.22662 1.0866-3.8493 2.3469-3.9514 1.3747-6.1176 1.485-6.4084 0.32644-0.08738-0.34816 0.27656-1.645 1.3535-4.8231 0.81018-2.3908 1.4466-4.3719 1.4142-4.4025-0.06715-0.0634-8.1705 2.8711-8.3081 3.0086-0.04949 0.04949-1.0008 2.7151-2.1141 5.9236-1.1133 3.2085-2.0494 5.854-2.0804 5.8788-0.03095 0.02485-1.8241 0.69428-3.9848 1.4876-2.1607 0.79334-4.0692 1.4967-4.2411 1.5629-0.17188 0.06627-0.31154 0.05163-0.31037-0.03254z"/>
   <path transform="matrix(.26458 0 0 .26458 0 274.77)" d="m57.074 41.434c4.0147-11.673 7.3038-21.149 7.3589-21.2 0.20191-0.18601 8.4619-3.0794 8.4998-2.9774 0.04104 0.11066-1.1692 3.6533-7.2251 21.148-1.0631 3.0713-1.6346 4.4816-1.8663 4.6056-0.42054 0.22507-8.0168 3.0212-8.2077 3.0212-0.07753 0 0.57067-2.0692 1.4404-4.5982z"/>
   <path transform="matrix(.26458 0 0 .26458 0 274.77)" d="m69.25 39.193c-0.84002-0.32102-1.1419-0.78887-1.0008-1.5511 0.14676-0.79273 4.9411-14.832 5.6654-16.59 1.0179-2.4707 4.3015-5.2306 8.7035-7.3153 1.7088-0.80926 13.84-5.3823 14.278-5.3823 0.27544 0 0.22788 0.41019-0.14838 1.2798l-0.33477 0.77373-5.481 2.0316c-5.5719 2.0652-6.6416 2.603-7.5988 3.8199-0.56522 0.71856-6.4292 17.525-6.4292 18.426 0 1.2854 2.5533 1.0188 5.625-0.58735 1.7773-0.92929 3.8357-2.65 4.1025-3.4294 0.05317-0.15538 0.92725-0.57448 2.0136-0.96548 1.0558-0.38 2.0328-0.73198 2.1711-0.78218 0.51992-0.18867-0.62967 1.4606-1.8679 2.6798-1.9605 1.9303-4.6462 3.6978-7.439 4.8955-2.0226 0.86738-5.291 1.9868-7.016 2.4029-1.8777 0.45296-4.4497 0.59715-5.2432 0.29393z"/>
   <path transform="matrix(.26458 0 0 .26458 0 274.77)" d="m49.315 83.775c-9.6735-0.74074-18.921-4.822-26.037-11.491-1.0046-0.94147-1.3292-1.3474-1.1607-1.4516 0.1286-0.07958 1.171-0.47638 2.3164-0.88177l2.0826-0.73708 1.4888 1.2881c7.0794 6.1251 17.471 9.5125 26.891 8.7656 7.6607-0.6075 15.048-3.4646 20.759-8.0288 1.5078-1.205 4.5717-4.2358 5.7914-5.7287 3.7681-4.6124 6.6146-10.738 7.717-16.608 0.25036-1.333 0.51282-2.5385 0.58325-2.679 0.11405-0.22749 3.9147-1.7085 4.0465-1.5768 0.10304 0.10304-0.47717 4.3543-0.83347 6.1069-0.54178 2.665-1.9836 6.8379-3.2692 9.4615-2.0603 4.2046-4.4216 7.5877-7.5752 10.853-6.5483 6.7803-15.075 11.102-24.407 12.371-1.8666 0.25382-6.8568 0.45358-8.3929 0.33596z"/>
   <path transform="matrix(.26458 0 0 .26458 0 274.77)" d="m48.953 74.493c-0.23864-0.2575-0.48242-0.72684-0.54173-1.043-0.27301-1.4553 0.57673-2.7678 5.0628-7.8204 1.4612-1.6458 2.9118-3.3474 3.2236-3.7815l0.56676-0.7892-0.93915-0.27237c-1.8444-0.5349-2.3118-0.53988-3.76-0.04002-1.6846 0.58144-2.0299 0.52206-6.274-1.0787-4.2433-1.6005-4.2657-1.6795-0.1483-0.52358 3.4154 0.95882 3.6797 1.0014 3.7585 0.60582 0.07567-0.38008-0.10755-0.47213-2.8045-1.409-1.2198-0.42372-2.1298-0.79972-2.0223-0.83556 0.10751-0.03584 1.254 0.22902 2.5477 0.58856 1.5917 0.44236 2.4108 0.5951 2.5335 0.47242 0.09971-0.09971 0.13668-0.25348 0.08215-0.34172-0.05453-0.08823-1.3627-0.51711-2.9071-0.95306-1.5444-0.43595-2.6941-0.81453-2.5549-0.84128 0.13915-0.02675 1.378 0.19052 2.753 0.48282 2.0421 0.43411 2.5425 0.48927 2.7322 0.30116 0.38787-0.38474-0.08102-0.60304-3.2967-1.5349-1.6538-0.47922-2.8393-0.87707-2.6345-0.8841 0.57376-0.0197 5.7178 1.0065 6.7292 1.3424 0.6899 0.22915 1.171 0.58465 2.0678 1.5282 1.1103 1.168 1.2525 1.2563 2.842 1.7655 0.92027 0.29479 1.7449 0.49168 1.8325 0.43754s0.59866-0.77251 1.1357-1.5964c0.97622-1.4977 7.4011-10.148 8.7265-11.749 0.38618-0.46652 0.80733-0.84821 0.9359-0.84821 0.32242 0 0.61504 0.92301 0.51973 1.6394-0.19694 1.4802-0.31865 1.9062-0.88689 3.1036-1.0252 2.1605-4.2608 6.7921-6.5332 9.3521-0.47359 0.53352-0.82966 1.0014-0.79127 1.0398 0.3437 0.3437 6.5654 1.4279 10.55 1.8384 3.1023 0.31962 4.0179 0.92904 4.0179 2.6745 0 0.58324-0.11348 0.85037-0.54424 1.2811-0.47602 0.47603-0.6383 0.5335-1.2946 0.45855-0.41272-0.04713-2.099-0.70189-3.7474-1.455-3.6969-1.6891-5.1555-2.2745-7.8959-3.1691l-2.1429-0.69948-0.72046 0.76273c-0.39625 0.4195-1.8313 2.5153-3.189 4.6573-4.7286 7.4602-5.8145 8.5998-6.9879 7.3337z"/>
   <path transform="matrix(.26458 0 0 .26458 0 274.77)" d="m1.0113 63.934c-1.1391-0.56905-1.2232-0.18849 2.3503-10.641 2.8925-8.461 2.8339-8.3268 4.3141-9.8851 1.4867-1.5651 4.0832-3.3573 6.732-4.6467 2.2152-1.0783 14.577-5.7071 14.758-5.526 0.03222 0.03222-0.08831 0.4941-0.26784 1.0264l-0.32642 0.96783-5.5743 2.0892c-5.6658 2.1235-6.8849 2.7371-7.6722 3.8615-0.37258 0.53211-0.70564 1.444-3.8807 10.625-2.6181 7.5709-2.651 7.6824-2.4019 8.1478 0.72234 1.3497 5.875-0.50996 8.3795-3.0243 0.64823-0.65077 1.2716-1.308 1.3852-1.4606 0.22889-0.30736 3.939-1.6885 4.1009-1.5266 0.31851 0.31852-2.3533 3.1905-4.2362 4.5535-2.4593 1.7804-6.1354 3.509-10.076 4.7384-3.3284 1.0383-6.3498 1.3175-7.5841 0.70094z"/>
  </g>
  <g stroke-width=".031567">
   <path transform="matrix(.26458 0 0 .26458 0 274.77)" d="m11.12 65.346c-0.0775-0.12137-0.12916-0.33675-0.09014-0.37578 0.01892-0.01892 0.74933-0.29673 1.6231-0.61736 14.503-5.3216 23.966-8.7848 24.004-8.7848 0.05358 0 0.16074 0.21888 0.17632 0.36015l0.01013 0.09183-2.5096 0.92131c-6.6491 2.441-23.137 8.4757-23.157 8.4757-0.0068 0-0.03275-0.03196-0.0577-0.07103z"/>
   <path transform="matrix(.26458 0 0 .26458 0 274.77)" d="m11.414 68.173c-0.04717-0.12376-0.10585-0.38572-0.08984-0.40106 0.07312-0.07001 16.252-5.9753 23.247-8.485 2.0087-0.72073 2.4363-0.86708 2.4611-0.84229 0.02168 0.02168 0.08383 0.38145 0.06854 0.39674-0.0098 0.0098-2.0762 0.7684-11.763 4.3183-2.5435 0.93211-5.761 2.1112-7.15 2.6202-1.389 0.50902-3.4625 1.2688-4.608 1.6885-1.1454 0.41964-2.0937 0.76981-2.1072 0.77817-0.01352 0.0084-0.0398-0.02472-0.0584-0.07352z"/>
   <path transform="matrix(.26458 0 0 .26458 0 274.77)" d="m11.719 70.965c-0.06949-0.10883-0.12891-0.33742-0.09557-0.36762 0.01594-0.01444 0.07159-0.04104 0.12368-0.05912 0.05209-0.01808 0.73394-0.2696 1.5152-0.55894s2.2728-0.83896 3.3146-1.2214c1.0417-0.38242 3.0092-1.1047 4.3721-1.605 3.7218-1.3662 11.897-4.3578 14.203-5.197 1.1186-0.40716 2.0632-0.73608 2.0992-0.73093 0.07234 0.01034 0.16638 0.17612 0.18197 0.32078l0.0097 0.09045-0.74183 0.27611c-1.0275 0.38244-2.5174 0.92956-9.3123 3.4197-8.7494 3.2064-15.586 5.7039-15.613 5.7039-6e-3 0-0.03131-0.03196-0.05625-0.07103z"/>
  </g>
  <g stroke-width=".044643">
   <path transform="matrix(.26458 0 0 .26458 0 274.77)" d="m73.563 42.321c-0.04845-0.12922-0.08436-0.23904-0.0798-0.24405 0.01014-0.01112 9.4973-3.4892 18.792-6.8892 7.5223-2.7518 6.9661-2.5757 7.0233-2.2234 0.02085 0.12849 0.01019 0.16232-0.0573 0.18186-0.0456 0.0132-0.79609 0.2893-1.6677 0.61355-1.5106 0.56194-6.0811 2.2454-7.4554 2.746-0.35603 0.1297-3.6708 1.3443-7.3661 2.6992-3.6953 1.3549-7.2407 2.6545-7.8787 2.8881-0.63796 0.23358-1.1738 0.4333-1.1909 0.44381-0.01702 0.01052-0.07059-0.08661-0.11904-0.21583z"/>
   <path transform="matrix(.26458 0 0 .26458 0 274.77)" d="m73.916 45.259c-0.02875-0.03464-0.0633-0.13097-0.07679-0.21406-0.02166-0.13348-0.0097-0.15786 0.10261-0.20928 0.5762-0.26378 25.378-9.2905 25.526-9.2905 0.0293 0 0.2151 0.36071 0.19568 0.3799-0.0079 0.0078-0.5366 0.20488-1.175 0.43804-0.63839 0.23317-4.2143 1.5426-7.9464 2.9098-3.7321 1.3672-7.6395 2.7977-8.683 3.1788-3.8652 1.4115-7.8701 2.8702-7.8803 2.8702-0.0058 0-0.03404-0.02834-0.06279-0.06298z"/>
   <path transform="matrix(.26458 0 0 .26458 0 274.77)" d="m74.182 48.005c-0.02955-0.07133-0.04705-0.17608-0.0389-0.23279 0.0159-0.11062-0.53018 0.09401 11.868-4.4471 1.952-0.715 4.7645-1.7452 6.25-2.2893s3.6049-1.321 4.7098-1.7264c1.1049-0.40543 2.1936-0.80415 2.4192-0.88605l0.41032-0.14891 0.07414 0.22323c0.04078 0.12277 0.06528 0.23209 0.05445 0.24292-0.01083 0.01083-0.45987 0.18205-0.99785 0.38048-1.0803 0.39846-10.83 3.9734-13.054 4.7865-0.77344 0.28278-2.5413 0.9297-3.9286 1.4376-4.6201 1.6915-7.6422 2.7896-7.6775 2.7896-0.0192 0-0.05909-0.05836-0.08863-0.12969z"/>
  </g>
 </g>
</svg>
